<svg width="32" height="32" viewBox="0 0 32 32" fill="none" xmlns="http://www.w3.org/2000/svg">
<rect width="32" height="32" rx="4" fill="#FF9900"/>
<path fill-rule="evenodd" clip-rule="evenodd" d="M10.1819 14.4587C10.1819 14.7864 10.2178 15.053 10.2799 15.2479C10.3506 15.4427 10.4399 15.6561 10.564 15.8869C10.6086 15.9576 10.626 16.0284 10.626 16.0904C10.626 16.1786 10.5727 16.2678 10.4573 16.356L9.89887 16.7283C9.81941 16.7816 9.73886 16.8077 9.6681 16.8077C9.57993 16.8077 9.49067 16.7631 9.4025 16.6837C9.27841 16.5509 9.17174 16.4083 9.08357 16.2668C8.9954 16.1154 8.90614 15.9478 8.80817 15.7432C8.11587 16.5596 7.24723 16.9667 6.20116 16.9667C5.45661 16.9667 4.86228 16.7533 4.42687 16.3277C3.99255 15.9021 3.77049 15.3339 3.77049 14.6253C3.77049 13.8709 4.03609 13.2592 4.57708 12.7987C5.11808 12.3383 5.8365 12.1064 6.74977 12.1064C7.0513 12.1064 7.36152 12.1325 7.69026 12.1772C8.01899 12.2218 8.35535 12.2925 8.7102 12.372V11.7243C8.7102 11.0505 8.5687 10.5803 8.2933 10.3049C8.0092 10.0295 7.53025 9.8967 6.84774 9.8967C6.53751 9.8967 6.21749 9.93263 5.88984 10.0121C5.5622 10.0916 5.24217 10.1895 4.93194 10.3136C4.79043 10.3757 4.68376 10.4116 4.62171 10.429C4.55967 10.4464 4.51504 10.4551 4.4802 10.4551C4.35611 10.4551 4.29407 10.3669 4.29407 10.1797V9.74866C4.29407 9.60716 4.31148 9.50048 4.35611 9.43844C4.40074 9.37639 4.4802 9.31434 4.6043 9.2523C4.91452 9.09228 5.2868 8.95948 5.72221 8.85281C6.15544 8.73743 6.61589 8.68409 7.10463 8.68409C8.1605 8.68409 8.93117 8.92356 9.42863 9.40251C9.91629 9.88147 10.1645 10.6086 10.1645 11.5839V14.4576L10.1819 14.4587ZM6.58105 15.8063C6.87387 15.8063 7.17539 15.753 7.49432 15.6463C7.81326 15.5396 8.09737 15.3448 8.33684 15.0792C8.47835 14.9104 8.58502 14.7243 8.63836 14.512C8.6917 14.2987 8.72653 14.0418 8.72653 13.7403V13.368C8.46964 13.306 8.19424 13.2526 7.91014 13.2167C7.62604 13.1808 7.35173 13.1634 7.07633 13.1634C6.482 13.1634 6.04768 13.2788 5.75486 13.5182C5.46205 13.7577 5.32054 14.0951 5.32054 14.5382C5.32054 14.9551 5.42722 15.2653 5.64819 15.4787C5.86263 15.6996 6.17286 15.8063 6.58105 15.8063ZM13.7033 16.7642C13.5432 16.7642 13.4377 16.7381 13.3658 16.676C13.2951 16.6227 13.233 16.4986 13.1797 16.3299L11.0952 9.47327C11.0418 9.29584 11.0157 9.18046 11.0157 9.11841C11.0157 8.9769 11.0864 8.89635 11.229 8.89635H12.0977C12.2664 8.89635 12.3818 8.92248 12.4438 8.98452C12.5146 9.03786 12.5679 9.16195 12.6213 9.33067L14.1115 15.2022L15.495 9.33067C15.5396 9.15324 15.5929 9.03786 15.6637 8.98452C15.7344 8.93118 15.8585 8.89635 16.0185 8.89635H16.7283C16.897 8.89635 17.0124 8.92248 17.0831 8.98452C17.1539 9.03786 17.2159 9.16195 17.2518 9.33067L18.6517 15.274L20.1865 9.33176C20.2398 9.15433 20.3019 9.03895 20.3639 8.98561C20.4347 8.93227 20.5501 8.89744 20.7101 8.89744H21.5352C21.6767 8.89744 21.7572 8.96819 21.7572 9.1195C21.7572 9.15714 21.751 9.194 21.7439 9.23662L21.7398 9.26101C21.7311 9.31434 21.7137 9.3851 21.6778 9.48307L19.5388 16.3386C19.4855 16.516 19.4234 16.6314 19.3527 16.6847C19.2819 16.7381 19.1666 16.7729 19.0152 16.7729H18.2522C18.0835 16.7729 17.9681 16.7468 17.8973 16.6847C17.8266 16.6227 17.7645 16.5073 17.7286 16.3299L16.3538 10.6097L14.9888 16.3212C14.9442 16.4986 14.8908 16.614 14.8201 16.676C14.7493 16.7381 14.6252 16.7642 14.4652 16.7642H13.7033ZM25.1001 17.0037C24.6386 17.0037 24.1781 16.9503 23.734 16.8437C23.291 16.737 22.9448 16.6216 22.714 16.4888C22.5725 16.4093 22.4746 16.3201 22.4387 16.2406C22.4027 16.1612 22.3853 16.0719 22.3853 15.9924V15.5396C22.3853 15.3535 22.4561 15.2642 22.5889 15.2642C22.6422 15.2642 22.6955 15.2729 22.7489 15.2903C22.7809 15.3008 22.8223 15.3179 22.8696 15.3375C22.9011 15.3505 22.9353 15.3646 22.9709 15.3785C23.2725 15.5113 23.6012 15.618 23.9463 15.6887C24.3011 15.7595 24.6473 15.7954 25.0021 15.7954C25.5605 15.7954 25.9959 15.6975 26.2975 15.5026C26.599 15.3078 26.759 15.0237 26.759 14.6601C26.759 14.4119 26.6795 14.2073 26.5195 14.0396C26.3595 13.8709 26.058 13.7207 25.6237 13.5781L24.3381 13.1786C23.6905 12.9751 23.2115 12.6735 22.9187 12.274C22.6259 11.8833 22.4757 11.4489 22.4757 10.9885C22.4757 10.6162 22.5551 10.2875 22.7151 10.0045C22.8752 9.72036 23.0874 9.47218 23.3541 9.27733C23.6197 9.07378 23.9212 8.92248 24.2761 8.8158C24.6309 8.70912 25.0021 8.66667 25.3929 8.66667C25.5877 8.66667 25.7924 8.67538 25.9872 8.70259C26.1908 8.72872 26.378 8.76464 26.5642 8.80056C26.7416 8.84519 26.9103 8.88873 27.0692 8.94207C27.2282 8.99541 27.3533 9.04874 27.4415 9.10208C27.5656 9.17284 27.6549 9.24359 27.7071 9.32414C27.7604 9.39489 27.7866 9.49286 27.7866 9.61695V10.0339C27.7866 10.22 27.7158 10.318 27.583 10.318C27.5123 10.318 27.3969 10.282 27.2456 10.2113C26.7405 9.98052 26.1723 9.86514 25.5431 9.86514C25.038 9.86514 24.6386 9.9446 24.3632 10.1133C24.0878 10.282 23.9463 10.5389 23.9463 10.9025C23.9463 11.1507 24.0344 11.364 24.2119 11.5328C24.3893 11.7015 24.7169 11.8702 25.1872 12.0204L26.4466 12.4199C27.0856 12.6235 27.546 12.9076 27.8214 13.2711C28.0968 13.6347 28.2296 14.0516 28.2296 14.5131C28.2296 14.8941 28.1501 15.2403 27.9988 15.5418C27.8388 15.8433 27.6266 16.1089 27.3512 16.3223C27.0758 16.5443 26.7481 16.7032 26.3671 16.8186C25.9687 16.9416 25.5518 17.0037 25.1001 17.0037ZM26.7764 21.3143C23.858 23.4696 19.6193 24.6136 15.9739 24.6136C10.8654 24.6136 6.26205 22.7239 2.7853 19.5846C2.5099 19.3364 2.75918 18.999 3.08682 19.1938C6.84658 21.3763 11.4859 22.6978 16.2841 22.6978C19.5214 22.6978 23.0776 22.024 26.3508 20.6405C26.8384 20.4184 27.2553 20.9594 26.7764 21.3143ZM24.5764 19.8152C25.5256 19.6998 27.6189 19.4516 27.9912 19.9306C28.3634 20.4008 27.5742 22.3787 27.2194 23.256C27.1127 23.5227 27.3435 23.6283 27.583 23.4248C29.145 22.112 29.5521 19.3722 29.2332 18.9727C28.9142 18.5819 26.1733 18.2445 24.5057 19.4157C24.2488 19.6018 24.2923 19.8511 24.5764 19.8152Z" fill="white"/>
</svg>
