<svg width="32" height="32" viewBox="0 0 32 32" fill="none" xmlns="http://www.w3.org/2000/svg">
<path d="M23.9629 14.7152C24.1612 16.9944 20.5695 19.1703 15.9374 19.5658C11.3063 19.9602 7.40232 18.4304 7.2051 16.1512C7.00681 13.872 10.5984 11.6961 15.2295 11.3006C19.851 10.9051 23.7646 12.4253 23.9629 14.7152Z" fill="#BBE6FB"/>
<path d="M15.3541 11.5607C13.5844 11.5298 11.5236 12.2377 9.98311 12.8933C9.82746 13.3517 9.73364 13.84 9.73364 14.3506C9.73364 17.0574 12.1803 19.2535 15.1985 19.2535C18.2166 19.2535 20.674 17.068 20.674 14.3506C20.674 13.4967 20.4245 12.6854 19.997 11.9882C18.7689 11.8006 17.0716 11.5927 15.3541 11.5607Z" fill="white"/>
<path d="M15.2087 11.5607C14.23 11.4978 12.5446 12.0085 11.1395 12.5181C10.921 13.018 10.8069 13.5692 10.8069 14.1523C10.8069 16.5254 12.9614 18.4507 15.23 18.4507C17.489 18.4507 19.4868 16.5254 19.6531 14.1523C19.7054 13.3826 19.4452 12.6534 19.07 12.0287C17.6233 11.7803 16.0829 11.6236 15.2087 11.5607Z" fill="white"/>
<path d="M12.7005 13.8507C12.8253 13.5799 13.0022 13.4552 13.1792 13.2366C13.1579 13.1844 13.1163 13.0074 13.1163 12.9552C13.1163 12.6844 13.3348 12.4765 13.595 12.4765C13.6579 12.4765 13.7197 12.4872 13.7719 12.5074C14.5736 11.8934 15.6248 11.6332 16.6866 11.872C16.7804 11.8934 16.8742 11.9243 16.968 11.9445C15.9275 11.7985 14.741 12.1737 13.9393 12.8187C13.9606 12.8816 14.0331 13.0373 14.0331 13.1098C14.0331 13.3805 13.8561 13.4424 13.596 13.4424C13.5331 13.4424 13.482 13.4317 13.4191 13.4115C13.2421 13.6513 13.0129 14.1193 12.9095 14.4104C13.3572 14.8059 13.7527 14.9519 14.273 15.1491C14.273 15.1278 14.2943 15.0969 14.2943 15.0767C14.2943 14.275 15.0022 13.6193 15.8039 13.6193C16.5224 13.6193 17.1258 14.1396 17.2399 14.8272C17.6045 14.598 17.9477 14.421 18.2078 14.0884C18.1449 14.0159 18.0831 13.7974 18.0831 13.6929C18.0831 13.453 18.2814 13.2558 18.5202 13.2558C18.5511 13.2558 18.5831 13.2558 18.6247 13.2665C18.7601 12.985 18.8645 12.694 18.9264 12.3923C17.6673 11.4552 15.2314 11.5906 15.2314 11.5906C15.2314 11.5906 13.2954 11.4861 11.9841 12.1322C12.0758 12.7377 12.3253 13.3411 12.7005 13.8507Z" fill="#373535"/>
<path d="M18.7164 13.4871C18.8103 13.5703 18.8518 13.6331 18.8934 13.7056C19.0075 13.9135 18.7793 14.1118 18.5288 14.1118C18.5075 14.1118 18.4766 14.1118 18.4563 14.1012C18.1855 14.5276 17.7069 15.0691 17.2805 15.3506C17.9361 15.4551 18.5501 15.7152 19.0288 16.1203C19.3827 15.4849 19.6535 14.5596 19.6535 13.7781C19.6535 13.1843 19.3934 12.7472 18.9979 12.4253C18.9872 12.7483 18.8103 13.195 18.7164 13.4871ZM13.4288 17.5254C13.6474 16.922 14.1783 16.4636 14.6878 16.0574C14.6153 15.9529 14.5002 15.7035 14.4586 15.5894C13.8446 15.4018 13.303 15.0478 12.8766 14.5905C12.8766 14.6011 12.8659 14.6214 12.8659 14.6321C12.7828 14.986 12.7721 15.3506 12.8137 15.6939C13.1047 15.7461 13.3339 16.0062 13.3339 16.3186C13.3339 16.5062 13.1676 16.7663 13.0429 16.8911C13.1687 17.1608 13.2625 17.3068 13.4288 17.5254Z" fill="#373535"/>
<path d="M13.3873 18.0254C13.1271 17.7652 12.9502 17.2557 12.7839 16.9326C12.7529 16.9326 12.721 16.9433 12.6901 16.9433C12.3361 16.9433 11.9715 16.6523 12.0547 16.3079C12.0963 16.1203 12.2316 15.9956 12.4395 15.8911C12.3873 15.4956 12.3766 14.9444 12.4704 14.5382C12.4918 14.4242 12.5536 14.3719 12.5845 14.2568C12.1997 13.695 11.9491 12.9455 11.9491 12.2067V12.1236C11.2935 12.4562 10.8042 12.9669 10.8042 13.7781C10.8042 15.5787 11.8447 17.3484 13.3851 18.035L13.3873 18.0254ZM17.1867 15.5372C16.9884 16.099 16.4479 16.5158 15.8125 16.5158C15.4693 16.5158 15.1569 16.4017 14.917 16.2034C14.4075 16.599 13.9384 17.2962 13.7092 17.9102C13.8137 18.0243 13.8862 18.1181 14.0109 18.2226C14.3648 18.3164 14.8648 18.2226 15.2497 18.2226C16.8008 18.2226 18.1845 17.536 18.9755 16.3175C18.435 15.9433 17.8114 15.5894 17.1867 15.5372Z" fill="#373535"/>
<path d="M12.659 14.0596C12.7838 13.7888 12.9298 13.55 13.1068 13.3208C13.0855 13.2686 13.0759 13.2067 13.0759 13.1545C13.0759 12.8837 13.2944 12.6758 13.5545 12.6758C13.6174 12.6758 13.6793 12.6865 13.7315 12.7068C14.5332 12.0927 15.5843 11.8326 16.6461 12.0714C16.7399 12.0927 16.8338 12.1236 16.9276 12.1439C15.8871 11.9978 14.804 12.3208 14.0033 12.9658C14.0247 13.0287 14.0449 13.0905 14.0449 13.1534C14.0449 13.4242 13.8264 13.6321 13.5663 13.6321C13.5034 13.6321 13.4522 13.6214 13.3893 13.6012C13.2123 13.8411 13.0567 14.1108 12.9522 14.4029C13.3371 14.809 13.8061 15.1417 14.3264 15.3293V15.2557C14.3264 14.454 14.982 13.7984 15.7837 13.7984C16.5022 13.7984 17.1056 14.3187 17.2197 15.0063C17.5843 14.7771 17.8966 14.486 18.1663 14.1428C18.1035 14.0703 18.0619 13.9764 18.0619 13.872C18.0619 13.6321 18.2602 13.4349 18.499 13.4349C18.5299 13.4349 18.5619 13.4349 18.6034 13.4455C18.7388 13.1641 18.8433 12.8731 18.9051 12.5714C17.6461 11.6343 15.2101 11.7697 15.2101 11.7697C15.2101 11.7697 13.2742 11.6652 11.9629 12.3112C12.0343 12.9456 12.2838 13.549 12.659 14.0596Z" fill="#1287B1"/>
<path d="M18.7789 13.5596C18.8727 13.6428 18.925 13.7579 18.925 13.8827C18.925 14.1225 18.7267 14.3198 18.4879 14.3198C18.4666 14.3198 18.4357 14.3198 18.4154 14.3091C18.1446 14.7355 17.78 15.1001 17.3536 15.3709C17.9783 15.4647 18.571 15.7355 19.0604 16.1406C19.4143 15.5052 19.6222 14.7664 19.6222 13.9861C19.6222 13.3923 19.3621 12.9552 18.9666 12.6332C18.9452 12.9563 18.8823 13.2686 18.7789 13.5596ZM13.4912 17.6608C13.7098 17.0574 14.085 16.5265 14.5946 16.1203C14.5221 16.0159 14.4592 15.9125 14.4176 15.7877C13.8036 15.6001 13.262 15.2462 12.8356 14.7888C12.8356 14.7995 12.8249 14.8197 12.8249 14.8304C12.7418 15.1843 12.7311 15.5489 12.7727 15.8922C13.0637 15.9444 13.2929 16.2046 13.2929 16.5169C13.2929 16.7045 13.2098 16.8708 13.0851 16.9849C13.1895 17.2237 13.3345 17.4529 13.4912 17.6608Z" fill="#1287B1"/>
<path d="M13.3869 18.0147C13.1268 17.7546 12.9083 17.4635 12.742 17.1405C12.711 17.1405 12.6791 17.1512 12.6481 17.1512C12.2942 17.1512 12.0128 16.8697 12.0128 16.5158C12.0128 16.2663 12.1588 16.0478 12.3667 15.9433C12.3145 15.5478 12.3358 15.1523 12.4296 14.7461C12.4509 14.6321 12.4925 14.5169 12.5234 14.4029C12.1386 13.841 11.9094 13.1534 11.9094 12.4146V12.3315C11.2537 12.6641 10.7644 13.1747 10.7644 13.986C10.7644 15.7866 11.8369 17.3377 13.3773 18.0243C13.3869 18.0254 13.3869 18.0254 13.3869 18.0147ZM17.1448 15.745C16.9465 16.3069 16.406 16.7237 15.7707 16.7237C15.4274 16.7237 15.115 16.6096 14.8752 16.4113C14.3656 16.8068 13.9797 17.3484 13.7409 17.9625C13.8453 18.0765 13.9594 18.181 14.0735 18.2855C14.4274 18.3793 14.8016 18.4315 15.1875 18.4315C16.7387 18.4315 18.1118 17.6298 18.9038 16.4124C18.3836 16.0371 17.7695 15.7973 17.1448 15.745Z" fill="#1287B1"/>
<path d="M17.1973 15.3709L18.5395 15.0479L17.1867 14.9754L18.29 14.1428L17.0406 14.5905L17.8839 13.4146L16.708 14.195L17.1142 12.8208L16.3125 13.9551L16.2912 12.5191L15.7602 13.7995L15.3232 12.5085L15.3445 14.0276L14.5844 12.6641L15.0012 14.1108L13.7624 13.2153L14.7304 14.4327L13.19 13.8709L14.3978 14.7664L12.8467 14.8187L14.4394 15.2248L12.8467 15.5681L14.4181 15.6822L13.0961 16.5255L14.4596 16.0361L13.513 17.2333L14.7102 16.2653L14.2837 17.8687L15.2102 16.5574L15.0854 18.0979L15.6057 16.6928L16.0534 18.1608L16.1579 16.6832L16.8242 17.9423L16.4287 16.5063L17.6365 17.4433L16.8562 16.2461L18.1888 16.7664L17.1685 15.7675L18.532 15.872L17.1973 15.3709Z" fill="white"/>
<path d="M2.86475 17.9412C7.03841 13.7675 10.3688 12.4765 13.3975 11.8944C13.793 11.8219 13.8762 10.9371 13.8762 10.9371C13.8762 10.9371 13.9284 11.5821 14.2088 11.6652C14.4902 11.7484 14.8538 10.6556 14.8538 10.6556C14.8538 10.6556 14.5212 11.6343 14.8538 11.6961C15.1864 11.7484 15.8111 10.7388 15.8111 10.7388C15.8111 10.7388 15.5616 11.6023 15.7279 11.6652C15.8943 11.7174 16.7375 10.4062 16.7375 10.4062C16.7375 10.4062 16.2375 11.2697 16.7066 11.3635C17.1853 11.4467 17.8825 10.7697 17.8825 10.7697C17.8825 10.7697 17.3409 11.3838 17.5808 11.4776C18.6213 11.8422 19.4539 10.4989 19.4539 10.4989C19.4539 10.4989 19.2556 11.0927 18.7566 11.7377C19.8494 12.0191 20.6617 10.3742 20.6617 10.3742L19.8494 12.0191C20.2662 12.227 21.941 10.291 21.941 10.291C21.941 10.291 21.0775 11.8006 20.5668 12.113C20.8483 12.3422 21.8578 11.436 21.8578 11.436C21.8578 11.436 21.0455 12.4456 21.3579 12.4978C21.8056 12.8624 23.4601 10.6247 23.4601 10.6247C23.4601 10.6247 22.8152 11.9467 21.8674 12.9775C22.6606 13.3826 24.6382 10.8326 24.6382 10.8326C24.6382 10.8326 24.5859 11.645 23.1499 12.9349C24.2117 12.7995 25.5859 10.7804 25.5859 10.7804C25.5859 10.7804 25.0859 12.2899 23.8791 13.3613C24.9196 13.2569 26.5955 10.6759 26.5955 10.6759C26.5955 10.6759 25.9505 12.4669 24.6382 13.5074C26.0955 13.8304 28.1978 11.6545 28.1978 11.6545C28.1978 11.6545 27.3758 13.195 26.2927 13.8304C27.5006 14.2888 29.1551 12.3837 29.1551 12.3837C29.1551 12.3837 27.5006 14.9338 24.8674 14.8186C24.0038 14.7771 21.3909 12.1961 15.7908 12.404C8.38059 12.6748 6.81986 15.8186 2.86475 17.9412Z" fill="#373535" fill-opacity="0.35"/>
<path d="M3.03101 17.6299C7.20467 13.4562 10.5351 12.1652 13.5638 11.5831C13.9593 11.5106 14.0424 10.6258 14.0424 10.6258C14.0424 10.6258 14.0947 11.2708 14.3751 11.3539C14.6554 11.4371 15.02 10.3443 15.02 10.3443C15.02 10.3443 14.6874 11.323 15.02 11.3848C15.3526 11.4371 15.9774 10.4275 15.9774 10.4275C15.9774 10.4275 15.7279 11.291 15.8942 11.3539C16.0605 11.4061 16.9038 10.0949 16.9038 10.0949C16.9038 10.0949 16.4038 10.9584 16.8729 11.0522C17.3526 11.1343 18.0498 10.4584 18.0498 10.4584C18.0498 10.4584 17.5082 11.0725 17.7481 11.1663C18.7886 11.5309 19.6212 10.1876 19.6212 10.1876C19.6212 10.1876 19.4229 10.7814 18.924 11.4264C20.0167 11.7078 20.829 10.0629 20.829 10.0629L20.0167 11.7078C20.4335 11.936 22.1201 10 22.1201 10C22.1201 10 21.2565 11.5096 20.7459 11.8219C21.0273 12.0202 22.0369 11.1247 22.0369 11.1247C22.0369 11.1247 21.2246 12.1343 21.5369 12.1865C21.9847 12.5511 23.6392 10.3134 23.6392 10.3134C23.6392 10.3134 22.9836 11.6354 22.0358 12.6662C22.8269 13.0618 24.8151 10.5117 24.8151 10.5117C24.8151 10.5117 24.7628 11.3241 23.3268 12.614C24.3886 12.4775 25.7628 10.4584 25.7628 10.4584C25.7628 10.4584 25.2628 11.968 24.056 13.0394C25.0965 12.9349 26.7724 10.3539 26.7724 10.3539C26.7724 10.3539 26.1274 12.1439 24.8151 13.1854C26.2724 13.5074 28.3747 11.3326 28.3747 11.3326C28.3747 11.3326 27.5527 12.8731 26.4696 13.5084C27.6775 13.9668 29.332 12.0618 29.332 12.0618C29.332 12.0618 27.6775 14.6118 25.0443 14.4977C24.1808 14.4562 21.5678 11.8752 15.9678 12.0831C8.55751 12.3624 6.98612 15.4956 3.03101 17.6299Z" fill="#121212"/>
<path d="M2.76074 18.3996C4.96751 19.503 6.98664 18.2333 9.52602 18.9507C11.462 19.4923 13.8138 20.1682 17.0098 19.7002C20.2048 19.2418 22.9318 17.8473 24.2442 15.3698C24.6504 14.2664 26.3049 15.6192 26.3049 15.6192C26.3049 15.6192 25.097 15.1193 25.129 15.3485C25.1599 15.5883 26.9403 16.4103 26.9403 16.4103C26.9403 16.4103 25.3273 15.9103 25.4307 16.2855C25.5245 16.6597 27.4499 18.18 27.4499 18.18C27.4499 18.18 25.2537 16.535 25.0768 16.7642C24.8892 16.9934 26.0032 17.8985 26.0032 17.8985C26.0032 17.8985 24.1717 16.7642 23.5256 17.0968C23.0576 17.3367 25.4307 18.8868 25.4307 18.8868C25.4307 18.8868 23.8902 17.7109 23.5256 18.0232C23.1611 18.3356 25.2633 20.8547 25.2633 20.8547C25.2633 20.8547 22.8689 18.2738 22.6301 18.3985C22.3903 18.5232 23.2858 19.762 23.2858 19.762C23.2858 19.762 22.1206 18.471 21.7976 18.6895C21.4745 18.9188 23.4841 22.2598 23.4841 22.2598C23.4841 22.2598 21.3082 18.8356 20.4031 19.4081C21.8082 22.4997 21.288 22.9368 21.288 22.9368C21.288 22.9368 21.111 19.7833 19.352 19.8665C18.4671 19.9081 19.7688 22.2193 19.7688 22.2193C19.7688 22.2193 18.5706 20.1064 17.7699 20.1479C19.2379 22.9379 18.7166 24.0615 18.7166 24.0615C18.7166 24.0615 18.9565 21.6778 16.9683 20.3558C17.7284 21.0328 16.4896 24.0615 16.4896 24.0615C16.4896 24.0615 17.5716 19.5968 15.6879 20.4496C15.3862 20.585 15.6666 22.6767 15.6666 22.6767C15.6666 22.6767 15.2924 20.2823 14.7199 20.4081C14.3873 20.4806 12.6176 23.7278 12.6176 23.7278C12.6176 23.7278 14.0643 20.2204 13.6272 20.3654C13.3042 20.4699 12.7008 21.9166 12.7008 21.9166C12.7008 21.9166 12.9918 20.4901 12.7008 20.407C12.4097 20.3238 10.7648 21.9166 10.7648 21.9166C10.7648 21.9166 11.9822 20.4901 11.7744 20.1884C11.4513 19.7407 11.0878 19.7204 10.6401 19.8974C9.99509 20.1469 9.13051 21.3238 9.13051 21.3238C9.13051 21.3238 9.99403 20.1266 9.84904 19.6895C9.60917 18.971 7.12203 21.0744 7.12203 21.0744C7.12203 21.0744 8.58895 19.6906 8.25633 19.3889C7.92372 19.0979 6.09114 19.181 5.52933 19.181C3.85346 19.2013 3.27032 18.8057 2.76074 18.3996Z" fill="#373535" fill-opacity="0.35"/>
<path d="M2.66675 18.1501C4.87351 19.2535 6.89265 17.9838 9.43203 18.7013C11.368 19.2429 13.7198 19.9187 16.9158 19.4507C20.1108 18.9923 22.8379 17.5979 24.1502 15.1203C24.5564 14.0169 26.2109 15.3698 26.2109 15.3698C26.2109 15.3698 25.003 14.8698 25.035 15.099C25.0659 15.3389 26.8463 16.1608 26.8463 16.1608C26.8463 16.1608 25.2333 15.6608 25.3367 16.0361C25.4305 16.4103 27.3559 17.9305 27.3559 17.9305C27.3559 17.9305 25.18 16.276 25.003 16.5041C24.8261 16.7333 25.9295 17.6384 25.9295 17.6384C25.9295 17.6384 24.0979 16.5041 23.4519 16.8367C22.9839 17.0766 25.357 18.6267 25.357 18.6267C25.357 18.6267 23.8165 17.4508 23.4519 17.7631C23.0873 18.0755 25.1896 20.5946 25.1896 20.5946C25.1896 20.5946 22.8059 18.0137 22.5671 18.1384C22.3272 18.2631 23.2227 19.5019 23.2227 19.5019C23.2227 19.5019 22.0362 18.2215 21.7132 18.4401C21.3901 18.6693 23.389 22.0104 23.389 22.0104C23.389 22.0104 21.2132 18.5755 20.3187 19.148C21.7345 22.2492 21.2036 22.6873 21.2036 22.6873C21.2036 22.6873 21.0266 19.5339 19.2676 19.617C18.3827 19.6586 19.6844 21.9699 19.6844 21.9699C19.6844 21.9699 18.4979 19.8676 17.6962 19.9091C19.1642 22.6991 18.6429 23.8227 18.6429 23.8227C18.6429 23.8227 18.8827 21.439 16.8945 20.117C17.6546 20.794 16.4158 23.8227 16.4158 23.8227C16.4158 23.8227 17.4979 19.358 15.6142 20.2108C15.3125 20.3462 15.5928 22.4379 15.5928 22.4379C15.5928 22.4379 15.2187 20.0435 14.6462 20.1693C14.3136 20.2418 12.5439 23.489 12.5439 23.489C12.5439 23.489 13.9905 19.9816 13.5535 20.1266C13.2304 20.2311 12.627 21.6778 12.627 21.6778C12.627 21.6778 12.9181 20.2514 12.627 20.1682C12.336 20.0851 10.6911 21.6778 10.6911 21.6778C10.6911 21.6778 11.9096 20.2524 11.7017 19.9507C11.3787 19.503 11.0151 19.4827 10.5674 19.6597C9.92242 19.9091 9.05784 21.0861 9.05784 21.0861C9.05784 21.0861 9.92135 19.8889 9.77637 19.4518C9.5365 18.7322 7.0483 20.8356 7.0483 20.8356C7.0483 20.8356 8.51627 19.4507 8.18259 19.149C7.84998 18.858 6.01741 18.9412 5.45559 18.9412C3.75947 18.9507 3.17633 18.5552 2.66675 18.1501Z" fill="#121212"/>
</svg>
