<svg width="32" height="32" viewBox="0 0 32 32" fill="none" xmlns="http://www.w3.org/2000/svg">
<path d="M6 4C6 2.89543 6.89543 2 8 2H19L26 9V28C26 29.1046 25.1046 30 24 30H8C6.89543 30 6 29.1046 6 28V4Z" fill="#E12B2B"/>
<path d="M19 2L26 9H19V2Z" fill="#9C2222"/>
<path d="M19.3688 19.4843V14H23V14.956H20.5283V16.2628H22.759V17.2188H20.5283V19.4843H19.3688Z" fill="white"/>
<path d="M15.8266 19.4843H13.8825V14H15.8427C16.3943 14 16.8692 14.1098 17.2673 14.3294C17.6654 14.5472 17.9716 14.8605 18.1858 15.2693C18.4018 15.6781 18.5099 16.1673 18.5099 16.7368C18.5099 17.3081 18.4018 17.799 18.1858 18.2096C17.9716 18.6203 17.6636 18.9353 17.262 19.1549C16.8621 19.3745 16.3836 19.4843 15.8266 19.4843ZM15.042 18.4908H15.7784C16.1212 18.4908 16.4095 18.4301 16.6434 18.3087C16.879 18.1855 17.0558 17.9954 17.1736 17.7383C17.2932 17.4795 17.353 17.1456 17.353 16.7368C17.353 16.3315 17.2932 16.0004 17.1736 15.7433C17.0558 15.4862 16.8799 15.297 16.646 15.1756C16.4122 15.0542 16.1239 14.9935 15.7811 14.9935H15.042V18.4908Z" fill="white"/>
<path d="M9 19.4843V14H11.1637C11.5797 14 11.9341 14.0794 12.2269 14.2383C12.5196 14.3954 12.7428 14.6141 12.8963 14.8944C13.0516 15.1729 13.1293 15.4943 13.1293 15.8585C13.1293 16.2226 13.0508 16.544 12.8936 16.8225C12.7365 17.101 12.5089 17.3179 12.2108 17.4732C11.9144 17.6285 11.5556 17.7062 11.1343 17.7062H9.75516V16.777H10.9468C11.17 16.777 11.3539 16.7386 11.4985 16.6618C11.6449 16.5833 11.7538 16.4753 11.8252 16.3378C11.8984 16.1985 11.935 16.0388 11.935 15.8585C11.935 15.6764 11.8984 15.5175 11.8252 15.3818C11.7538 15.2443 11.6449 15.1381 11.4985 15.0631C11.3521 14.9864 11.1664 14.948 10.9415 14.948H10.1595V19.4843H9Z" fill="white"/>
</svg>
