<svg width="32" height="32" viewBox="0 0 32 32" fill="none" xmlns="http://www.w3.org/2000/svg">
<path d="M4 6C4 4.89543 4.89543 4 6 4H21.5858C21.851 4 22.1054 4.10536 22.2929 4.29289L27.7071 9.70711C27.8946 9.89464 28 10.149 28 10.4142V26C28 27.1046 27.1046 28 26 28H6C4.89543 28 4 27.1046 4 26V6Z" fill="#E14C4C"/>
<path fill-rule="evenodd" clip-rule="evenodd" d="M10 8V4H12V8H21V10H12C10.8954 10 10 9.10457 10 8Z" fill="white"/>
<path d="M22 18C22 19.5913 21.3679 21.1174 20.2426 22.2426C19.1174 23.3679 17.5913 24 16 24C14.4087 24 12.8826 23.3679 11.7574 22.2426C10.6321 21.1174 10 19.5913 10 18C10 16.4087 10.6321 14.8826 11.7574 13.7574C12.8826 12.6321 14.4087 12 16 12C17.5913 12 19.1174 12.6321 20.2426 13.7574C21.3679 14.8826 22 16.4087 22 18ZM15.0925 15.8197C15.0364 15.7798 14.9704 15.7561 14.9018 15.7512C14.8331 15.7463 14.7644 15.7603 14.7033 15.7919C14.6421 15.8234 14.5907 15.8712 14.5549 15.9299C14.519 15.9887 14.5 16.0562 14.5 16.125V19.875C14.5 19.9438 14.519 20.0113 14.5549 20.0701C14.5907 20.1288 14.6421 20.1766 14.7033 20.2081C14.7644 20.2397 14.8331 20.2537 14.9018 20.2488C14.9704 20.2439 15.0364 20.2202 15.0925 20.1803L17.7175 18.3052C17.7661 18.2706 17.8057 18.2248 17.8331 18.1717C17.8604 18.1186 17.8747 18.0597 17.8747 18C17.8747 17.9403 17.8604 17.8814 17.8331 17.8283C17.8057 17.7752 17.7661 17.7294 17.7175 17.6947L15.0925 15.8197Z" fill="white"/>
</svg>
