<svg width="32" height="32" viewBox="0 0 32 32" fill="none" xmlns="http://www.w3.org/2000/svg">
<path d="M6 4C6 2.89543 6.89543 2 8 2H19L26 9V28C26 29.1046 25.1046 30 24 30H8C6.89543 30 6 29.1046 6 28V4Z" fill="#7DD9FF"/>
<path d="M19 2L26 9H19V2Z" fill="#00B3FB"/>
<path fill-rule="evenodd" clip-rule="evenodd" d="M10.1598 11.1598C10.2941 11.0254 10.4887 10.9707 10.6735 11.0152L18.5825 12.9243C18.789 12.9742 18.9478 13.1393 18.9894 13.3476L19.6184 16.4923C19.8142 16.4154 20.0456 16.456 20.2039 16.6143L21.8402 18.2507C22.0533 18.4637 22.0533 18.809 21.8402 19.0221L18.0221 22.8402C17.809 23.0533 17.4637 23.0533 17.2507 22.8402L15.6143 21.2039C15.456 21.0456 15.4154 20.8142 15.4923 20.6184L12.3476 19.9894C12.1393 19.9478 11.9742 19.789 11.9243 19.5825L10.0152 11.6735C9.97065 11.4887 10.0254 11.2941 10.1598 11.1598ZM16.3662 19.6806L18.6806 17.3662L17.988 13.9031L12.302 12.5306L14.7491 14.9777C14.9627 14.8754 15.2019 14.8182 15.4546 14.8182C16.3583 14.8182 17.0909 15.5508 17.0909 16.4546C17.0909 17.3583 16.3583 18.0909 15.4546 18.0909C14.5508 18.0909 13.8182 17.3583 13.8182 16.4546C13.8182 16.2019 13.8754 15.9627 13.9777 15.7491L11.5306 13.302L12.9031 18.988L16.3662 19.6806ZM15.0622 16.0757C14.9674 16.1738 14.9091 16.3074 14.9091 16.4546C14.9091 16.7558 15.1533 17 15.4546 17C15.7558 17 16 16.7558 16 16.4546C16 16.1533 15.7558 15.9091 15.4546 15.9091C15.3074 15.9091 15.1738 15.9674 15.0757 16.0622C15.0735 16.0644 15.0712 16.0667 15.069 16.069C15.0667 16.0712 15.0644 16.0735 15.0622 16.0757ZM16.7714 20.8182L17.6364 21.6832L20.6832 18.6364L19.8182 17.7714L16.7714 20.8182Z" fill="white"/>
</svg>
