<svg width="32" height="32" viewBox="0 0 32 32" fill="none" xmlns="http://www.w3.org/2000/svg">
<path d="M4 6C4 4.89543 4.89543 4 6 4H21.5858C21.851 4 22.1054 4.10536 22.2929 4.29289L27.7071 9.70711C27.8946 9.89464 28 10.149 28 10.4142V26C28 27.1046 27.1046 28 26 28H6C4.89543 28 4 27.1046 4 26V6Z" fill="#E14C4C"/>
<path fill-rule="evenodd" clip-rule="evenodd" d="M10 8V4H12V8H21V10H12C10.8954 10 10 9.10457 10 8Z" fill="white"/>
<path d="M13.6 14.4375C13.6 13.791 13.8529 13.171 14.3029 12.7139C14.753 12.2568 15.3635 12 16 12C16.6365 12 17.247 12.2568 17.6971 12.7139C18.1471 13.171 18.4 13.791 18.4 14.4375V17.5C18.4 18.1465 18.1471 18.7665 17.6971 19.2236C17.247 19.6807 16.6365 19.9375 16 19.9375C15.3635 19.9375 14.753 19.6807 14.3029 19.2236C13.8529 18.7665 13.6 18.1465 13.6 17.5V14.4375Z" fill="white"/>
<path d="M12.4 17.2812C12.5061 17.2812 12.6078 17.3241 12.6828 17.4002C12.7579 17.4764 12.8 17.5798 12.8 17.6875V17.5C12.8 18.362 13.1371 19.1886 13.7373 19.7981C14.3374 20.4076 15.1513 20.75 16 20.75C16.8487 20.75 17.6626 20.4076 18.2627 19.7981C18.8629 19.1886 19.2 18.362 19.2 17.5V17.6875C19.2 17.5798 19.2421 17.4764 19.3172 17.4002C19.3922 17.3241 19.4939 17.2812 19.6 17.2812C19.7061 17.2812 19.8078 17.3241 19.8828 17.4002C19.9579 17.4764 20 17.5798 20 17.6875V17.5C20 18.5071 19.6317 19.4783 18.9665 20.2252C18.3013 20.9721 17.3867 21.4415 16.4 21.5422V23.1875H18.8C18.9061 23.1875 19.0078 23.2303 19.0828 23.3065C19.1579 23.3827 19.2 23.486 19.2 23.5938C19.2 23.7015 19.1579 23.8048 19.0828 23.881C19.0078 23.9572 18.9061 24 18.8 24H13.2C13.0939 24 12.9922 23.9572 12.9172 23.881C12.8421 23.8048 12.8 23.7015 12.8 23.5938C12.8 23.486 12.8421 23.3827 12.9172 23.3065C12.9922 23.2303 13.0939 23.1875 13.2 23.1875H15.6V21.5422C14.6133 21.4415 13.6987 20.9721 13.0335 20.2252C12.3683 19.4783 12 18.5071 12 17.5V17.6875C12 17.5798 12.0421 17.4764 12.1172 17.4002C12.1922 17.3241 12.2939 17.2812 12.4 17.2812Z" fill="white"/>
</svg>
