<svg xmlns="http://www.w3.org/2000/svg" width="21" height="20" viewBox="0 0 21 20" fill="none">
  <path d="M3.67159 2.76043C0.282706 6.20118 0.0368804 11.6921 3.07458 15.4359L6.74441 11.7278C5.51528 9.74888 6.07717 7.12821 8.02622 5.88028C9.39582 5.00672 11.1342 5.00672 12.5038 5.88028L16.1736 2.15429C12.4686 -0.929893 7.06047 -0.680306 3.67159 2.76043Z" fill="#57A9CF"/>
  <path d="M17.3151 3.33113L13.6804 7.03929C14.9798 8.96468 14.5057 11.6032 12.6093 12.9224C11.187 13.9208 9.30822 13.9208 7.88594 12.9224L4.23367 16.6127C8.13177 19.9822 13.9965 19.5008 17.3151 15.5431C20.265 12.031 20.265 6.86101 17.3151 3.33113Z" fill="#121E40"/>
  <path d="M20.704 20V14.2951L15.0676 20H20.704Z" fill="#57A9CF"/>
</svg>
