<svg width="32" height="32" viewBox="0 0 32 32" fill="none" xmlns="http://www.w3.org/2000/svg">
<path fill-rule="evenodd" clip-rule="evenodd" d="M27 5C27 3.9 26.1 3 25 3H21V1H19V3H11V1H9V3H5C3.89 3 3 3.9 3 5V25C3 26.11 3.89 27 5 27H11V25H5V11H25V13H27V5ZM25 9V5H21V7H19V5H11V7H9V5H5V9H25ZM13 23C13 27.41 16.59 31 21 31C25.41 31 29 27.41 29 23C29 18.59 25.41 15 21 15C16.59 15 13 18.59 13 23ZM15 23C15 19.69 17.69 17 21 17C24.31 17 27 19.69 27 23C27 26.31 24.31 29 21 29C17.69 29 15 26.31 15 23ZM20 23.41L22.59 26L24 24.59L22 22.59V19H20V23.41Z" fill="black"/>
</svg>
