<svg width="32" height="32" viewBox="0 0 32 32" fill="none" xmlns="http://www.w3.org/2000/svg">
<path fill-rule="evenodd" clip-rule="evenodd" d="M28 19.7861V25C28 27.7614 22.6274 30 16 30C9.37258 30 4 27.7614 4 25V19.7861C4.77814 20.4301 5.72608 20.9569 6.74549 21.3817C9.21511 22.4107 12.4882 23 16 23C19.5118 23 22.7849 22.4107 25.2545 21.3817C26.2739 20.9569 27.2219 20.4301 28 19.7861ZM28 16V10.7861C27.2219 11.4301 26.2739 11.9569 25.2545 12.3817C22.7849 13.4107 19.5118 14 16 14C12.4882 14 9.21511 13.4107 6.74549 12.3817C5.72608 11.9569 4.77814 11.4301 4 10.7861V16C4 18.7614 9.37258 21 16 21C22.6274 21 28 18.7614 28 16ZM16 12C9.37258 12 4 9.76142 4 7C4 4.23858 9.37258 2 16 2C22.6274 2 28 4.23858 28 7C28 9.76142 22.6274 12 16 12Z" fill="#818589"/>
</svg>
