<svg width="32" height="32" viewBox="0 0 32 32" fill="none" xmlns="http://www.w3.org/2000/svg">
<path d="M16 2C8.265 2 2 8.19406 2 15.8415C2 21.9663 6.0075 27.1396 11.5725 28.9736C12.2725 29.0947 12.535 28.6794 12.535 28.3161C12.535 27.9874 12.5175 26.8973 12.5175 25.7381C9 26.3783 8.09 24.8903 7.81 24.1117C7.6525 23.7138 6.97 22.4854 6.375 22.1566C5.885 21.8971 5.185 21.2569 6.3575 21.2396C7.46 21.2223 8.2475 22.2431 8.51 22.6584C9.77 24.7519 11.7825 24.1636 12.5875 23.8003C12.71 22.9006 13.0775 22.295 13.48 21.949C10.365 21.603 7.11 20.4092 7.11 15.1148C7.11 13.6095 7.6525 12.3638 8.545 11.3949C8.405 11.0489 7.915 9.63011 8.685 7.72691C8.685 7.72691 9.8575 7.36357 12.535 9.14566C13.655 8.83422 14.845 8.67851 16.035 8.67851C17.225 8.67851 18.415 8.83422 19.535 9.14566C22.2125 7.34627 23.385 7.72691 23.385 7.72691C24.155 9.63011 23.665 11.0489 23.525 11.3949C24.4175 12.3638 24.96 13.5922 24.96 15.1148C24.96 20.4265 21.6875 21.603 18.5725 21.949C19.08 22.3816 19.5175 23.212 19.5175 24.5097C19.5175 26.361 19.5 27.8489 19.5 28.3161C19.5 28.6794 19.7625 29.112 20.4625 28.9736C23.2418 28.0459 25.6568 26.28 27.3677 23.9242C29.0786 21.5685 29.9993 18.7416 30 15.8415C30 8.19406 23.735 2 16 2Z" fill="black"/>
</svg>
