<svg width="32" height="33" viewBox="0 0 32 33" fill="none" xmlns="http://www.w3.org/2000/svg">
<g filter="url(#filter0_d_2950_44)">
<path d="M16.0026 12.2102L11.5979 4.43673C11.7441 4.28783 11.9124 4.19016 12.0806 4.12451C10.7817 4.55201 10.1857 6.01064 10.1857 6.01064L2.13886 20.2078C2.02564 20.6529 1.99419 21.0548 2.00834 21.4087H10.7911L16.0026 12.2102Z" fill="#34A853"/>
<path d="M16.0025 12.2102L21.2139 21.4087H29.9967C30.0109 21.0548 29.9794 20.6529 29.8662 20.2078L21.8194 6.01064C21.8194 6.01064 21.2218 4.55201 19.9244 4.12451C20.0911 4.19016 20.261 4.28783 20.4072 4.43673L16.0025 12.2102Z" fill="#FBBC05"/>
<path d="M16.0025 12.2107L20.4072 4.43727C20.261 4.28836 20.0912 4.19069 19.9245 4.12505C19.7326 4.0626 19.5266 4.02097 19.3033 4.00977H19.0705H12.9344H12.7016C12.4799 4.01937 12.2723 4.061 12.0805 4.12505C11.9138 4.19069 11.744 4.28836 11.5977 4.43727L16.0025 12.2107Z" fill="#188038"/>
<path d="M10.7926 21.4084L6.43811 29.0938C6.43811 29.0938 6.29344 29.0234 6.09686 28.8777C6.71488 29.3532 7.31561 29.4541 7.31561 29.4541H24.4173C25.3608 29.4541 25.5574 29.0938 25.5574 29.0938C25.5606 29.0922 25.5621 29.0906 25.5653 29.089L21.214 21.4084H10.7926Z" fill="#4285F4"/>
<path d="M10.7929 21.4084H2.0101C2.05413 22.4524 2.50703 23.0624 2.50703 23.0624L2.83727 23.6356C2.86086 23.6692 2.87501 23.6885 2.87501 23.6885L3.59368 24.9501L5.20713 27.7585C5.2543 27.8722 5.30935 27.9763 5.36753 28.0755C5.38955 28.1092 5.40999 28.146 5.43358 28.178C5.43987 28.1876 5.44616 28.1972 5.45245 28.2068C5.65216 28.4886 5.87547 28.7064 6.09878 28.8777C6.29535 29.025 6.44002 29.0938 6.44002 29.0938L10.7929 21.4084Z" fill="#1967D2"/>
<path d="M21.214 21.4084H29.9968C29.9527 22.4524 29.4998 23.0624 29.4998 23.0624L29.1696 23.6356C29.146 23.6692 29.1318 23.6885 29.1318 23.6885L28.4132 24.9501L26.7997 27.7585C26.7525 27.8722 26.6975 27.9763 26.6393 28.0755C26.6173 28.1092 26.5969 28.146 26.5733 28.178C26.567 28.1876 26.5607 28.1972 26.5544 28.2068C26.3547 28.4886 26.1314 28.7064 25.9081 28.8777C25.7115 29.025 25.5668 29.0938 25.5668 29.0938L21.214 21.4084Z" fill="#EA4335"/>
</g>
<defs>
<filter id="filter0_d_2950_44" x="-2" y="-1" width="36" height="36" filterUnits="userSpaceOnUse" color-interpolation-filters="sRGB">
<feFlood flood-opacity="0" result="BackgroundImageFix"/>
<feColorMatrix in="SourceAlpha" type="matrix" values="0 0 0 0 0 0 0 0 0 0 0 0 0 0 0 0 0 0 127 0" result="hardAlpha"/>
<feOffset dy="1"/>
<feGaussianBlur stdDeviation="1"/>
<feColorMatrix type="matrix" values="0 0 0 0 0.0627451 0 0 0 0 0.0941176 0 0 0 0 0.156863 0 0 0 0.05 0"/>
<feBlend mode="normal" in2="BackgroundImageFix" result="effect1_dropShadow_2950_44"/>
<feBlend mode="normal" in="SourceGraphic" in2="effect1_dropShadow_2950_44" result="shape"/>
</filter>
</defs>
</svg>
