<svg width="32" height="32" viewBox="0 0 32 32" fill="none" xmlns="http://www.w3.org/2000/svg">
<g filter="url(#filter0_d_2950_73)">
<path d="M27.0405 3H22.8138V9.12468H28.9985V4.727C29.0002 4.727 28.6929 3.16702 27.0405 3Z" fill="#1967D2"/>
<path d="M22.8155 28.9718V28.9868V29.0002L29.0002 22.8755H28.9448L22.8155 28.9718Z" fill="#1967D2"/>
<path d="M28.9997 22.8755V22.8206L28.9448 22.8755H28.9997Z" fill="#FBBC05"/>
<path d="M29.0002 9.12476H22.8155V22.8205H29.0002V9.12476Z" fill="#FBBC05"/>
<path d="M28.9448 22.8755H22.8155V28.9718L28.9448 22.8755Z" fill="#EA4335"/>
<path d="M22.8155 22.8755H28.9448L29.0002 22.8206H22.8155V22.8755Z" fill="#EA4335"/>
<path d="M22.8003 28.9869H22.8153V28.9719L22.8003 28.9869Z" fill="#34A853"/>
<path d="M9.0454 22.8206V28.987H22.8004L22.8155 22.8206H9.0454Z" fill="#34A853"/>
<path d="M22.8153 22.8757V22.8206L22.8003 28.987L22.8153 28.972V22.8757Z" fill="#34A853"/>
<path d="M3 22.8206V27.108C3.05542 28.4993 4.56005 28.987 4.56005 28.987H9.04539V22.8206H3Z" fill="#188038"/>
<path d="M9.04539 9.12468H22.8155V3H4.73469C4.73469 3 3.11083 3.16702 3 4.89235V22.8204H9.04539V9.12468Z" fill="#4285F4"/>
<path d="M13.5504 20.0482C13.2353 20.0482 12.9316 20.0072 12.639 19.9251C12.354 19.8431 12.0915 19.72 11.8515 19.5559C11.6114 19.3843 11.3977 19.1717 11.2101 18.918C11.0301 18.6644 10.8914 18.3697 10.7938 18.034L12.1777 17.4856C12.2752 17.8586 12.4403 18.1421 12.6728 18.3361C12.9053 18.5226 13.1978 18.6159 13.5504 18.6159C13.7079 18.6159 13.8579 18.5935 14.0004 18.5487C14.1429 18.4965 14.2667 18.4256 14.3717 18.3361C14.4767 18.2466 14.5592 18.1421 14.6192 18.0228C14.6867 17.8959 14.7205 17.7542 14.7205 17.5975C14.7205 17.2693 14.5967 17.0119 14.3492 16.8254C14.1092 16.6389 13.7754 16.5456 13.3479 16.5456H12.684V15.214H13.2916C13.4416 15.214 13.5879 15.1953 13.7304 15.158C13.8729 15.1207 13.9967 15.0648 14.1017 14.9902C14.2142 14.9081 14.3005 14.8074 14.3605 14.688C14.428 14.5612 14.4617 14.4157 14.4617 14.2516C14.4617 13.9979 14.3717 13.7928 14.1917 13.6361C14.0117 13.472 13.7679 13.3899 13.4604 13.3899C13.1303 13.3899 12.8753 13.4795 12.6953 13.6585C12.5228 13.8301 12.4028 14.0241 12.3353 14.2404L10.9851 13.6921C11.0526 13.5056 11.1539 13.3153 11.2889 13.1214C11.4239 12.9199 11.5927 12.7409 11.7952 12.5842C12.0052 12.4201 12.249 12.2895 12.5265 12.1926C12.8041 12.0881 13.1228 12.0359 13.4829 12.0359C13.8504 12.0359 14.1842 12.0881 14.4842 12.1926C14.7918 12.297 15.0543 12.4425 15.2718 12.629C15.4893 12.808 15.6581 13.0244 15.7781 13.278C15.8981 13.5242 15.9581 13.7928 15.9581 14.0837C15.9581 14.3075 15.9281 14.509 15.8681 14.688C15.8156 14.8671 15.7444 15.0275 15.6543 15.1692C15.5643 15.311 15.4593 15.4341 15.3393 15.5385C15.2268 15.6355 15.1105 15.7138 14.9905 15.7735V15.863C15.3506 16.0048 15.6468 16.2323 15.8794 16.5456C16.1194 16.859 16.2394 17.2544 16.2394 17.7318C16.2394 18.0675 16.1756 18.3771 16.0481 18.6606C15.9206 18.9367 15.7369 19.1791 15.4968 19.388C15.2643 19.5969 14.983 19.7573 14.653 19.8692C14.323 19.9886 13.9554 20.0482 13.5504 20.0482Z" fill="#4285F4"/>
<path d="M18.9262 19.8692V13.9383L17.5648 14.509L17.0248 13.2668L19.2863 12.2149H20.4001V19.8692H18.9262Z" fill="#4285F4"/>
</g>
<defs>
<filter id="filter0_d_2950_73" x="-2" y="-1" width="36" height="36" filterUnits="userSpaceOnUse" color-interpolation-filters="sRGB">
<feFlood flood-opacity="0" result="BackgroundImageFix"/>
<feColorMatrix in="SourceAlpha" type="matrix" values="0 0 0 0 0 0 0 0 0 0 0 0 0 0 0 0 0 0 127 0" result="hardAlpha"/>
<feOffset dy="1"/>
<feGaussianBlur stdDeviation="1"/>
<feColorMatrix type="matrix" values="0 0 0 0 0.0627451 0 0 0 0 0.0941176 0 0 0 0 0.156863 0 0 0 0.05 0"/>
<feBlend mode="normal" in2="BackgroundImageFix" result="effect1_dropShadow_2950_73"/>
<feBlend mode="normal" in="SourceGraphic" in2="effect1_dropShadow_2950_73" result="shape"/>
</filter>
</defs>
</svg>
