<svg width="32" height="32" viewBox="0 0 32 32" fill="none" xmlns="http://www.w3.org/2000/svg">
<path d="M24.9203 9L20 13.9082L30.6333 13.9082V11.9796L24.6673 11.9796L26.2833 10.3596L24.9203 9Z" fill="#7E848A"/>
<path d="M30.6333 15.75L25.713 20.6582L24.35 19.2986L25.9661 17.6785L20 17.6785V15.75L30.6333 15.75Z" fill="#7E848A"/>
<path fill-rule="evenodd" clip-rule="evenodd" d="M12 5C14.76 5 17 7.23999 17 10C17 12.76 14.76 15 12 15C9.23999 15 7 12.76 7 10C7 7.23999 9.23999 5 12 5ZM12 3C8.13 3 5 6.13 5 10C5 13.87 8.13 17 12 17C15.87 17 19 13.87 19 10C19 6.13 15.87 3 12 3ZM22 29H20V23C20 20.24 15.76 20 13 20H11C8.23999 20 4 20.24 4 23V29H2V23C2 19.14 7.14001 18.01 11 18H13C16.86 18.01 21.99 19.14 22 23V29Z" fill="#7E848A"/>
</svg>
