<svg width="32" height="32" viewBox="0 0 32 32" fill="none" xmlns="http://www.w3.org/2000/svg">
<path fill-rule="evenodd" clip-rule="evenodd" d="M11 4C13.76 4 16 6.23999 16 9C16 11.76 13.76 14 11 14C8.23999 14 6 11.76 6 9C6 6.23999 8.23999 4 11 4ZM11 2C7.13 2 4 5.13 4 9C4 12.87 7.13 16 11 16C14.87 16 18 12.87 18 9C18 5.13 14.87 2 11 2ZM21 30H19V23C19 20.24 14.76 20 12 20H10C7.23999 20 3 20.24 3 23V30H1V23C1 19.14 6.14001 18.01 10 18H12C15.86 18.01 20.99 19.14 21 23V30ZM27 14H31V16H27V20H25V16H21V14H25V10H27V14Z" fill="black"/>
</svg>
