<svg width="32" height="32" viewBox="0 0 32 32" fill="none" xmlns="http://www.w3.org/2000/svg">
<path d="M6.59493 3.70112C6.74958 3.75267 6.74958 3.75267 6.81738 3.88266C6.83986 3.93977 6.86234 3.99688 6.8855 4.05572C6.9108 4.11881 6.9361 4.18189 6.96217 4.24688C6.9819 4.2971 6.98191 4.2971 7.00204 4.34833C7.07004 4.5211 7.14003 4.69306 7.2101 4.86501C7.22381 4.89872 7.23753 4.93243 7.25165 4.96717C7.40728 5.34724 7.59005 5.70904 7.78057 6.07239C7.83061 6.17216 7.88006 6.27221 7.92946 6.3723C8.01626 6.54778 8.10457 6.72249 8.19296 6.89718C8.21194 6.93484 8.23092 6.9725 8.25048 7.0113C8.87965 8.25367 9.63268 9.42622 10.5127 10.5056C10.5353 10.5336 10.5578 10.5615 10.5811 10.5903C11.3197 11.5019 12.0537 12.2207 13.1703 12.6249C14.1781 12.9913 15.1574 13.4298 16.0285 14.0625C16.0789 14.0984 16.1293 14.1342 16.1813 14.1711C16.569 14.453 16.9193 14.7635 17.2656 15.0935C17.3213 15.1451 17.3213 15.1451 17.378 15.1976C18.0003 15.7912 18.6057 16.6351 18.8637 17.4648C18.8637 17.5328 18.8637 17.6009 18.8637 17.671C18.9147 17.671 18.9657 17.671 19.0183 17.671C19.0183 17.637 19.0183 17.6029 19.0183 17.5679C19.0868 17.4988 19.0868 17.4988 19.1859 17.4165C19.3433 17.2831 19.4965 17.1466 19.6469 17.0053C20.7496 15.9734 22.1998 14.8871 23.7743 14.9119C24.3035 14.9355 24.7041 15.1059 25.1011 15.4544C25.13 15.4778 25.1588 15.5013 25.1885 15.5255C25.3875 15.7026 25.5147 15.899 25.6473 16.1272C25.8275 16.4645 25.8275 16.4645 26.1027 16.7151C26.2206 16.7477 26.2206 16.7477 26.3359 16.7659C26.5327 16.8195 26.6448 16.9891 26.7507 17.1555C26.8048 17.3178 26.8075 17.4333 26.8055 17.6033C26.805 17.6546 26.8046 17.7058 26.8041 17.7586C26.8035 17.7977 26.8029 17.8369 26.8023 17.8772C26.7673 17.8697 26.7324 17.8623 26.6964 17.8546C26.1003 17.7358 25.5391 17.7041 25.0045 18.0415C24.7802 18.218 24.6916 18.451 24.5953 18.7129C24.224 19.7109 23.4956 20.6118 22.833 21.4341C22.8118 21.4607 22.7906 21.4872 22.7688 21.5146C22.3581 22.0241 21.8958 22.4852 21.4347 22.9484C21.4037 22.9796 21.3728 23.0108 21.3409 23.043C20.9613 23.4252 20.5758 23.781 20.1524 24.1147C20.0833 24.1718 20.0143 24.2291 19.9456 24.2866C19.4825 24.6708 19.0059 25.022 18.5028 25.3518C18.466 25.3762 18.4292 25.4006 18.3912 25.4257C17.8434 25.7863 17.2818 26.1099 16.699 26.4111C16.3637 26.587 16.1375 26.7348 15.9254 27.053C15.8913 27.053 15.8573 27.053 15.8223 27.053C15.8096 27.0821 15.7969 27.1112 15.7838 27.1412C15.7079 27.2797 15.6169 27.3815 15.5097 27.4976C15.386 27.6318 15.263 27.7654 15.1451 27.9047C14.9301 28.1567 14.7036 28.3734 14.4433 28.5769C14.4153 28.5991 14.3873 28.6212 14.3585 28.6441C14.1824 28.7772 14.0892 28.812 13.8634 28.8572C13.9655 28.6531 14.0675 28.4489 14.1727 28.2386C14.0133 28.393 13.8679 28.5522 13.7249 28.7219C13.4428 29.0419 13.0475 29.399 12.6026 29.4343C12.5425 29.4325 12.5425 29.4325 12.4812 29.4307C12.4405 29.4298 12.3998 29.4288 12.3578 29.4279C12.312 29.4261 12.312 29.4261 12.2654 29.4242C12.3776 29.3379 12.4874 29.2604 12.6101 29.189C12.9399 28.972 13.2075 28.6308 13.3994 28.2902C13.279 28.3414 13.1588 28.393 13.0386 28.4448C12.99 28.4654 12.99 28.4654 12.9403 28.4865C12.7217 28.5811 12.5085 28.6839 12.2963 28.7922C11.806 29.0421 11.3051 29.2573 10.7962 29.4661C10.714 29.5002 10.6319 29.5342 10.5497 29.5683C10.4703 29.6012 10.3908 29.6341 10.3113 29.6669C10.2754 29.6817 10.2396 29.6965 10.2026 29.7118C9.46605 30.014 9.46605 30.014 9.22395 29.9913C9.37543 29.8301 9.53336 29.7083 9.71689 29.5853C10.3636 29.1452 10.9976 28.6858 11.5874 28.1714C11.7008 28.082 11.8014 28.1222 11.8014 27.9809C11.8869 27.9048 11.9756 27.8324 12.0656 27.7618C12.2366 27.6255 12.4009 27.4913 12.5521 27.3333C12.5936 27.2918 12.635 27.2503 12.6778 27.2076C12.7805 27.2076 12.7809 27.2073 12.7809 27.1045C12.8569 27.0301 12.8569 27.0301 12.9619 26.9436C13.1881 26.7511 13.3931 26.5448 13.596 26.3281C13.6317 26.29 13.6673 26.252 13.7041 26.2128C14.0195 25.8726 14.3089 25.5182 14.5851 25.1456C14.6176 25.1021 14.6501 25.0585 14.6835 25.0136C15.2271 24.2608 15.6529 23.4577 15.9254 22.5682C15.8848 22.585 15.8442 22.6018 15.8023 22.6191C14.6411 23.085 13.3599 23.1849 12.1623 22.7744C12.1108 22.757 12.0593 22.7396 12.0062 22.7216C11.0917 22.3913 10.2857 21.8788 9.57916 21.2132C9.48708 21.1217 9.48708 21.1217 9.3786 21.0732C9.3786 21.0392 9.3786 21.0052 9.3786 20.9701C9.32756 20.9531 9.27653 20.9361 9.22395 20.9186C9.22395 20.8846 9.22395 20.8506 9.22395 20.8155C9.18993 20.8155 9.1559 20.8155 9.12085 20.8155C9.12085 20.7815 9.12085 20.7475 9.12085 20.7124C9.08683 20.7124 9.05281 20.7124 9.01775 20.7124C8.93603 20.6241 8.85819 20.5321 8.78256 20.4385C8.74103 20.3877 8.6995 20.3369 8.65671 20.2845C8.55381 20.1454 8.55381 20.1454 8.50226 19.9907C8.66977 20.0501 8.81707 20.1262 8.96942 20.2162C9.89237 20.7275 10.9347 20.6852 11.9561 20.6093C11.8893 20.5986 11.8225 20.5879 11.7537 20.5769C10.5801 20.3781 9.4101 19.968 8.50226 19.1659C8.50226 19.1319 8.50226 19.0979 8.50226 19.0628C8.47165 19.0488 8.44105 19.0348 8.40952 19.0204C7.20243 18.3745 6.36658 16.5772 5.92479 15.3513C5.90668 15.2828 5.88923 15.2141 5.87324 15.1451C6.02789 15.1451 6.02789 15.1451 6.10743 15.2226C6.13541 15.2576 6.16338 15.2926 6.1922 15.3287C6.35401 15.5234 6.52775 15.684 6.72361 15.8438C6.76198 15.8807 6.76198 15.8807 6.80113 15.9183C6.80113 16.0261 6.86036 16.0388 6.91712 16.0633C7.0547 16.1227 7.14803 16.1869 7.26507 16.2792C8.16563 16.9205 9.32585 17.3279 10.4096 17.5163C10.3422 17.4789 10.3422 17.4789 10.2735 17.4406C7.8744 16.0956 6.07518 14.0565 5.31868 11.3798C5.09527 10.5391 4.90818 9.62226 5.04845 8.75296C5.16066 8.85801 5.24064 8.95919 5.31647 9.09266C5.3371 9.12852 5.35773 9.16437 5.37898 9.20132C5.40068 9.23942 5.42238 9.27752 5.44474 9.31678C6.44022 11.0336 7.65988 12.5547 9.43015 13.4955C9.44716 13.4785 9.46417 13.4615 9.4817 13.4439C9.42837 13.3924 9.42837 13.3924 9.37397 13.3398C9.04168 13.0139 8.73409 12.6799 8.45071 12.3099C8.42337 12.2742 8.39604 12.2386 8.36787 12.2018C7.27525 10.7678 6.35677 9.12633 6.13099 7.30957C6.12527 7.26572 6.11956 7.22186 6.11367 7.17667C5.98459 6.01141 6.10563 4.7753 6.59493 3.70112ZM6.69803 7.51577C6.74958 7.67042 6.74958 7.67042 6.74958 7.67042L6.69803 7.51577ZM6.74958 7.72197C6.80113 7.82507 6.80113 7.82507 6.80113 7.82507L6.74958 7.72197ZM6.80113 7.87662C6.95169 9.17178 7.6406 10.4265 8.4056 11.4593C8.43028 11.4926 8.45495 11.526 8.48037 11.5603C8.65895 11.7952 8.85625 12.0029 9.0693 12.2068C9.0693 12.0008 8.96853 11.9108 8.84377 11.7589C7.93915 10.6147 7.29905 9.25945 6.85268 7.87662C6.83567 7.87662 6.81866 7.87662 6.80113 7.87662ZM6.02789 12.0006C6.07944 12.1037 6.07944 12.1037 6.07944 12.1037L6.02789 12.0006ZM6.13099 12.2068C6.1635 12.4397 6.25434 12.6339 6.35974 12.8415C6.37796 12.8774 6.39618 12.9133 6.41495 12.9504C6.84308 13.7792 7.36229 14.4997 8.03832 15.1451C8.07765 15.1855 8.11699 15.2259 8.15752 15.2675C8.69515 15.7926 9.30974 16.3193 9.99719 16.64C10.0312 16.623 10.0652 16.606 10.1003 16.5885C10.0597 16.5578 10.0191 16.5272 9.97726 16.4956C9.66643 16.2596 9.36068 16.0192 9.06286 15.7669C9.03484 15.7432 9.00682 15.7195 8.97795 15.695C8.87133 15.6041 8.76727 15.5135 8.6702 15.4123C8.60768 15.3395 8.53717 15.2918 8.50226 15.2482C8.50226 15.2141 8.50226 15.2832 8.50226 15.2482C8.43353 15.1623 8.43353 15.1623 8.34761 15.0935C8.31359 15.0935 8.27957 14.9904 8.24451 14.9904C8.24451 14.9564 8.24451 15.0255 8.24451 14.9904C8.17578 14.9045 8.17578 14.9045 8.08986 14.8358C7.94032 14.8358 7.74923 14.4818 7.65814 14.3879C7.15334 13.8409 6.75301 13.2136 6.38048 12.5714C6.30336 12.4426 6.22411 12.3242 6.13099 12.2068ZM14.018 13.8563C14.1206 13.9649 14.2205 14.0473 14.3483 14.1244C14.3821 14.145 14.4159 14.1656 14.4507 14.1869C14.4866 14.2086 14.5224 14.2303 14.5593 14.2526C14.9065 14.4664 15.2405 14.6908 15.5645 14.9389C15.606 14.9704 15.6474 15.0019 15.6902 15.0343C16.0361 15.3038 16.3574 15.5982 16.6756 15.8994C16.7382 15.9586 16.8013 16.0173 16.8645 16.0758C17.3976 16.5848 17.8091 17.2011 18.1935 17.8256C18.2571 17.635 18.2097 17.5672 18.124 17.393C18.1055 17.3571 18.087 17.3213 18.0679 17.2844C18.0489 17.2473 18.03 17.2103 18.0105 17.1722C17.3167 15.8484 16.1148 14.942 14.8428 14.2172C14.7949 14.1899 14.7949 14.1899 14.7461 14.1621C14.4016 13.9439 14.4016 13.9439 14.018 13.8563ZM24.0186 15.9699C23.9971 16.0987 23.9971 16.0987 24.0186 16.2276C24.1128 16.3436 24.1128 16.3436 24.2506 16.3436C24.3884 16.3436 24.3884 16.3436 24.4826 16.2276C24.466 16.0678 24.466 16.0678 24.431 15.9183C24.2156 15.857 24.2156 15.857 24.0186 15.9699ZM18.2451 17.8256C18.2966 17.9287 18.2966 17.9287 18.2966 17.9287L18.2451 17.8256ZM8.03832 18.1349C8.08935 18.203 8.14038 18.271 8.19296 18.3411C8.22699 18.3241 8.26101 18.3071 8.29606 18.2896C8.22519 18.2101 8.22519 18.2101 8.14141 18.1349C8.10739 18.1349 8.07337 18.1349 8.03832 18.1349ZM8.34761 18.3927C8.54089 18.6456 8.74723 18.8237 9.00809 19.0048C9.04637 19.0316 9.08465 19.0583 9.1241 19.0859C9.66567 19.4557 10.2483 19.7394 10.8735 19.9392C10.9198 19.9545 10.966 19.9699 11.0137 19.9857C11.2337 20.0559 11.414 20.102 11.6468 20.0938C11.5082 20.0224 11.3695 19.9607 11.2239 19.9049C10.3091 19.5501 9.34089 19.1535 8.58804 18.5061C8.46714 18.3817 8.46714 18.3817 8.34761 18.3927ZM23.2969 19.6814C23.3485 19.7845 23.3485 19.7845 23.3485 19.7845L23.2969 19.6814ZM23.1938 19.8361C23.1248 19.9196 23.0561 20.0034 22.9876 20.0874C22.9493 20.134 22.9111 20.1807 22.8716 20.2287C22.7713 20.34 22.7713 20.34 22.7814 20.4547C22.7474 20.4547 22.7134 20.4547 22.6783 20.4547C22.5996 20.5427 22.5996 20.5427 22.514 20.6609C21.9162 21.4268 21.2029 22.1467 20.4617 22.7744C20.4112 22.8186 20.3607 22.8628 20.3087 22.9083C19.3988 23.7027 18.4288 24.4297 17.4203 25.0941C17.4543 25.1111 17.4883 25.1281 17.5234 25.1456C17.6262 25.1043 17.6262 25.1043 17.7395 25.0371C17.7835 25.0122 17.8275 24.9873 17.8728 24.9617C17.9202 24.9341 17.9676 24.9066 18.0163 24.8782C18.0893 24.8361 18.0893 24.8361 18.1637 24.7931C18.8867 24.3691 19.5552 23.8707 20.204 23.3414C20.2319 23.3189 20.2598 23.2964 20.2885 23.2732C21.0639 22.6439 21.8271 21.9304 22.4206 21.1248C22.4605 21.0707 22.4605 21.0707 22.5013 21.0156C22.9036 20.4966 22.9036 20.4966 23.2454 19.9392C23.2199 19.8881 23.2199 19.8881 23.1938 19.8361ZM11.0797 21.8465C11.2383 22.0192 11.4229 22.0926 11.6371 22.1783C11.6763 22.1941 11.7156 22.2099 11.756 22.2262C12.8857 22.6722 14.0198 22.8068 15.2037 22.4651C15.2547 22.4311 15.3057 22.397 15.3583 22.362C15.2793 22.3632 15.2793 22.3632 15.1988 22.3644C13.877 22.383 12.7295 22.3033 11.4553 21.9298C11.3309 21.8963 11.2063 21.8704 11.0797 21.8465Z" fill="#2E3D4E"/>
<path d="M12.6809 2C12.7149 2 12.7489 2 12.784 2C12.8089 2.05176 12.8339 2.10353 12.8597 2.15686C13.3277 3.11655 13.912 3.9584 14.6015 4.77158C14.6913 4.88676 14.6913 4.88676 14.7457 5.00194C14.7909 5.11147 14.7909 5.11147 14.949 5.14451C15.0195 5.2162 15.0195 5.2162 15.0972 5.31205C15.2758 5.52286 15.4659 5.71923 15.6611 5.91453C15.7055 5.95936 15.7055 5.95936 15.7509 6.00509C15.9026 6.16089 15.9026 6.16089 16.0831 6.2786C16.0831 6.31262 16.0831 6.34664 16.0831 6.38169C16.1122 6.39425 16.1412 6.40681 16.1711 6.41975C16.3117 6.49709 16.4138 6.59108 16.531 6.70066C16.873 7.02034 17.247 7.29577 17.6264 7.5691C18.6521 8.31022 19.5308 9.15218 20.0009 10.351C20.0193 10.3966 20.0377 10.4422 20.0566 10.4891C20.7073 12.2485 20.3056 14.2389 19.5471 15.8923C19.4341 16.1312 19.3101 16.3607 19.1761 16.5885C19.1421 16.5885 19.108 16.5885 19.073 16.5885C19.0548 16.5392 19.0367 16.49 19.018 16.4393C18.7669 15.7746 18.4405 15.2427 17.9389 14.7327C17.9021 14.6952 17.8653 14.6577 17.8273 14.6191C17.2763 14.0927 16.5974 13.7111 15.951 13.3151C15.2208 12.8666 14.5262 12.4017 13.918 11.7944C13.8763 11.7532 13.8346 11.7121 13.7916 11.6697C13.3015 11.1589 12.7324 10.2678 12.7324 9.5262C12.905 9.58372 12.935 9.62333 13.0449 9.7614C13.5657 10.3715 14.2631 10.7103 14.9748 11.0469C15.7789 11.4283 16.3842 11.8333 17.011 12.4645C16.8935 12.0783 16.7173 11.8259 16.4351 11.5382C16.3409 11.4335 16.3409 11.4335 16.3409 11.3304C16.2992 11.3122 16.2992 11.3122 16.2567 11.2936C16.1016 11.2094 15.9692 11.1019 15.8318 10.9921C15.5986 10.809 15.3614 10.6404 15.1101 10.4831C14.518 10.1107 13.96 9.7013 13.4541 9.21691C13.4177 9.18315 13.3813 9.14939 13.3438 9.11461C12.6532 8.4557 12.2119 7.54629 12.1654 6.58789C12.1619 6.3816 12.1622 6.17559 12.1654 5.9693C12.3867 6.04606 12.4681 6.20587 12.581 6.3978C12.7475 6.66855 12.9261 6.91906 13.1319 7.16138C13.1665 7.20248 13.1665 7.20248 13.2018 7.2444C13.3102 7.36979 13.4182 7.47667 13.5483 7.57981C13.5853 7.60972 13.6222 7.63962 13.6603 7.67043C13.6603 7.70445 13.6603 7.73847 13.6603 7.77353C13.7034 7.79382 13.7034 7.79382 13.7474 7.81452C13.8792 7.88323 13.9988 7.9629 14.1222 8.04557C14.4293 8.24256 14.748 8.38489 15.0843 8.52421C15.4801 8.68841 15.8394 8.86022 16.1862 9.11381C16.0496 8.81738 15.8995 8.58123 15.6836 8.33735C15.6565 8.30617 15.6295 8.27498 15.6016 8.24286C15.4209 8.03789 15.2325 7.85203 15.0175 7.68251C14.9949 7.66151 14.9723 7.64051 14.949 7.61888C14.949 7.58486 14.949 7.55083 14.949 7.51578C14.9204 7.50382 14.8918 7.49186 14.8622 7.47953C13.9579 6.9732 13.2353 5.68142 12.9386 4.73212C12.7492 4.04607 12.6729 3.40869 12.6776 2.69592C12.6779 2.62893 12.6781 2.56195 12.6783 2.49294C12.6789 2.32862 12.6798 2.16431 12.6809 2ZM18.2482 8.95916C18.3335 9.14017 18.4377 9.30564 18.5446 9.47466C18.965 10.152 19.261 10.854 19.4467 11.6301C19.4551 11.6652 19.4635 11.7003 19.4722 11.7364C19.5754 12.1909 19.5987 12.6475 19.6175 13.1121C19.6197 13.1641 19.6219 13.2161 19.6242 13.2697C19.6296 13.3965 19.6349 13.5233 19.64 13.6502C19.657 13.6502 19.674 13.6502 19.6916 13.6502C19.9438 12.2159 19.6439 10.769 18.8152 9.57775C18.5741 9.22106 18.5741 9.22106 18.2482 8.95916ZM19.5885 13.7533C19.64 13.9594 19.64 13.9594 19.64 13.9594L19.5885 13.7533Z" fill="#FDA901"/>
<path d="M10.2002 29.3866C10.2363 29.399 10.2724 29.4115 10.3096 29.4243C10.3266 29.4923 10.3436 29.5603 10.3611 29.6305C10.2207 29.6912 10.08 29.7512 9.93907 29.8109C9.89944 29.8281 9.8598 29.8453 9.81896 29.863C9.61563 29.9485 9.45234 30.0166 9.22705 29.9913C9.38408 29.8245 9.55083 29.6928 9.73932 29.5628C9.79188 29.5258 9.84445 29.4888 9.8986 29.4506C10.0518 29.3727 10.0518 29.3727 10.2002 29.3866Z" fill="#2D3843"/>
<path d="M20.2586 23.2383C20.2926 23.2553 20.3267 23.2724 20.3617 23.2899C20.2981 23.3604 20.2335 23.4301 20.1684 23.4993C20.1146 23.5576 20.1146 23.5576 20.0597 23.6171C20.0232 23.6452 19.9868 23.6733 19.9493 23.7023C19.8813 23.6853 19.8132 23.6682 19.7431 23.6507C19.9132 23.5146 20.0833 23.3785 20.2586 23.2383Z" fill="#2B363F"/>
<path d="M8.50536 19.9907C8.7113 20.0613 8.8559 20.1586 9.02085 20.3C8.9358 20.283 8.85074 20.266 8.76311 20.2485C8.7461 20.2825 8.72909 20.3165 8.71156 20.3516C8.50536 20.1067 8.50536 20.1067 8.50536 19.9907Z" fill="#2F363C"/>
<path d="M20.1555 12.8254C20.2065 12.8254 20.2576 12.8254 20.3102 12.8254C20.3102 12.9615 20.3102 13.0975 20.3102 13.2378C20.1826 13.1268 20.1265 13.0461 20.104 12.8769C20.121 12.8599 20.138 12.8429 20.1555 12.8254Z" fill="#E9B10F"/>
<path d="M13.8149 4.06196C13.9425 4.08748 13.9425 4.08748 14.0727 4.11351C14.0897 4.16455 14.1067 4.21558 14.1242 4.26816C14.0222 4.26816 13.9201 4.26816 13.8149 4.26816C13.8149 4.20012 13.8149 4.13207 13.8149 4.06196Z" fill="#EDAF02"/>
</svg>
