<svg width="32" height="32" viewBox="0 0 32 32" fill="none" xmlns="http://www.w3.org/2000/svg">
<path d="M20.6771 17.2106C22.5158 17.2106 25.1782 16.8281 25.1782 14.6405C25.1842 14.4716 25.1694 14.3026 25.1341 14.1374L24.0382 9.37816C23.7852 8.3307 23.5631 7.85551 21.7244 6.93604C20.299 6.20635 17.1879 5 16.2685 5C15.4154 5 15.1653 6.10337 14.1445 6.10337C13.1618 6.10337 12.4322 5.27952 11.5114 5.27952C10.6288 5.27952 10.0551 5.88269 9.61091 7.11846C9.61091 7.11846 8.3753 10.608 8.21349 11.1141C8.18923 11.2072 8.17931 11.3035 8.18407 11.3995C8.18407 12.7559 13.5237 17.2032 20.6771 17.2032M25.4621 15.5291C25.7166 16.7354 25.7166 16.8605 25.7166 17.0193C25.7166 19.079 23.4013 20.2221 20.3579 20.2221C13.4796 20.2265 7.45447 16.1955 7.45447 13.5327C7.4534 13.1615 7.5285 12.7939 7.67511 12.4529C5.20682 12.5765 2.00009 13.0178 2.00009 15.8454C2.00009 20.4766 12.9736 26.1847 21.6597 26.1847C28.3202 26.1847 30.0001 23.1717 30.0001 20.7929C30.0001 18.9216 28.382 16.7972 25.4651 15.5291" fill="#EE0000"/>
<path d="M25.4621 15.5291C25.7166 16.7354 25.7166 16.8605 25.7166 17.0193C25.7166 19.079 23.4013 20.2221 20.3579 20.2221C13.4796 20.2265 7.45447 16.1955 7.45447 13.5327C7.4534 13.1615 7.5285 12.7939 7.67511 12.4529L8.21496 11.12C8.1903 11.211 8.17939 11.3053 8.1826 11.3995C8.1826 12.7559 13.5222 17.2032 20.6771 17.2032C22.5158 17.2032 25.1782 16.8237 25.1782 14.6346C25.1843 14.4652 25.1695 14.2957 25.1341 14.13L25.4621 15.5291Z" fill="black"/>
</svg>
