<svg width="32" height="32" viewBox="0 0 32 32" fill="none" xmlns="http://www.w3.org/2000/svg">
<path d="M25.5776 14.8343C25.5198 15.0359 25.4554 15.2356 25.3854 15.4316C25.3116 15.6379 25.2323 15.8404 25.1455 16.0401L22.2419 15.9795C22.2419 16.0383 22.2419 16.0961 22.24 16.1549L30.1324 16.3201C30.1425 15.8544 30.1304 15.3896 30.094 14.9285L25.5776 14.8343Z" fill="black"/>
<path d="M19.4849 2.35467L19.4055 2.5516C19.8433 2.71587 20.267 2.91093 20.6748 3.13213L17.8665 10.0939C18.0373 10.1461 18.2081 10.2068 18.377 10.2749C18.3854 10.2787 18.3938 10.2815 18.4013 10.2852L21.3534 2.966C21.345 2.96227 21.3366 2.95947 21.3291 2.95573C20.7206 2.71027 20.1046 2.51053 19.4849 2.35467Z" fill="black"/>
<path d="M22.3082 4.23907C22.66 4.5312 22.9923 4.84665 23.3022 5.18361L19.2954 10.7369C19.4354 10.8228 19.5716 10.9133 19.7023 11.0085L24.3214 4.60773C23.8258 4.24933 23.3022 3.91986 22.7524 3.624L22.3082 4.23907Z" fill="black"/>
<path d="M24.4287 6.66013C24.6676 7.04093 24.8814 7.43853 25.069 7.85108L20.5162 11.7179C20.6114 11.8168 20.7028 11.9185 20.7915 12.024L26.8078 6.91401C26.4354 6.47348 26.035 6.05441 25.6075 5.65961L24.4287 6.66013Z" fill="black"/>
<path d="M27.8652 8.34013L25.6374 9.45081C25.7494 9.87733 25.8343 10.3151 25.8903 10.7621L21.4495 12.976C21.5036 13.0731 21.5559 13.1711 21.6044 13.27L28.667 9.74946C28.4271 9.26506 28.1602 8.79466 27.8652 8.34013Z" fill="black"/>
<path d="M25.9678 12.2629C25.9584 12.7053 25.9202 13.1421 25.8548 13.5696L22.0375 14.4264C22.059 14.5085 22.0795 14.5907 22.0972 14.6737L29.7981 12.9452C29.688 12.4543 29.5527 11.9699 29.3912 11.4939L25.9678 12.2629Z" fill="black"/>
<path d="M29.9241 18.4295L24.6611 17.0145C24.4632 17.3627 24.2458 17.6996 24.0096 18.0207L22.0571 17.4961C22.0459 17.54 22.0347 17.5829 22.0226 17.6268L29.6442 19.6755C29.7572 19.2611 29.8504 18.8467 29.9241 18.4295Z" fill="black"/>
<path d="M23.4151 18.7571C23.1743 19.0287 22.9186 19.2872 22.6498 19.5308L21.5148 18.9045C21.4971 18.9381 21.4784 18.9717 21.4598 19.0053L28.3702 22.818C28.5559 22.4811 28.7295 22.1348 28.89 21.7783L23.4151 18.7571Z" fill="black"/>
<path d="M21.9908 20.0815C21.7314 20.2803 21.4616 20.466 21.1835 20.6396L20.6468 20.144C20.6272 20.1664 20.6067 20.1879 20.5862 20.2103L26.384 25.5667C26.6211 25.3119 26.8488 25.0468 27.0672 24.7724L21.9908 20.0815Z" fill="black"/>
<path d="M24.5566 27.2177L20.4798 21.0391C20.3183 21.1221 20.155 21.2005 19.9888 21.2752C19.9888 21.2752 19.6892 21.404 19.6211 21.432L23.794 27.7553C24.0544 27.5845 24.3074 27.4053 24.5566 27.2177Z" fill="black"/>
<path d="M18.9286 21.6803C18.8595 21.7017 18.4218 21.8287 18.292 21.8604C18.292 21.8604 18.1698 21.8903 18.1362 21.8977L20.7542 29.2608C21.0118 29.1693 21.2666 29.0713 21.5186 28.9649L18.9286 21.6803Z" fill="black"/>
<path d="M17.355 22.0377C17.1254 22.0872 16.893 22.1227 16.6578 22.146L17.4455 30C17.6798 29.9768 17.9131 29.9476 18.1446 29.9132L17.355 22.0377Z" fill="black"/>
<path d="M15.758 22.1665C15.562 22.1563 15.366 22.1376 15.17 22.1087L14.0547 29.9236C14.2498 29.9516 14.4458 29.9756 14.6408 29.9964L15.758 22.1665Z" fill="black"/>
<path d="M6.55818 17.1657C6.61603 16.9641 6.68043 16.7644 6.75043 16.5684C6.82418 16.3621 6.90351 16.1596 6.99031 15.9599L9.89391 16.0205C9.89391 15.9617 9.89391 15.9039 9.89579 15.8451L2.00351 15.6799C1.99324 16.1456 2.00537 16.6104 2.04177 17.0715L6.55818 17.1657Z" fill="black"/>
<path d="M12.6519 29.6454L12.7312 29.4484C12.2935 29.2841 11.8698 29.0891 11.4619 28.8679L14.2703 21.9061C14.0995 21.8539 13.9287 21.7932 13.7598 21.7251C13.7514 21.7213 13.743 21.7185 13.7355 21.7148L10.7834 29.034C10.7918 29.0377 10.8002 29.0406 10.8076 29.0443C11.4162 29.2897 12.0322 29.4895 12.6519 29.6454Z" fill="black"/>
<path d="M9.82763 27.7609C9.47579 27.4688 9.14351 27.1533 8.83363 26.8164L12.8404 21.2631C12.7004 21.1772 12.5642 21.0867 12.4335 20.9915L7.81443 27.3923C8.31003 27.7507 8.83363 28.0801 9.38339 28.376L9.82763 27.7609Z" fill="black"/>
<path d="M7.70711 25.3399C7.46818 24.9591 7.25443 24.5615 7.06683 24.1489L11.6196 20.2821C11.5244 20.1832 11.433 20.0815 11.3443 19.976L5.32803 25.086C5.70043 25.5265 6.10083 25.9456 6.52831 26.3404L7.70711 25.3399Z" fill="black"/>
<path d="M4.2715 23.6599L6.49938 22.5492C6.38738 22.1227 6.30243 21.6849 6.24643 21.2379L10.6872 19.024C10.6331 18.9269 10.5808 18.8289 10.5323 18.73L3.46884 22.2505C3.70871 22.7349 3.97657 23.2053 4.2715 23.6599Z" fill="black"/>
<path d="M6.16803 19.7371C6.17736 19.2947 6.21563 18.8579 6.28096 18.4304L10.0983 17.5736C10.0768 17.4915 10.0563 17.4093 10.0386 17.3263L2.33763 19.0539C2.44776 19.5448 2.58309 20.0292 2.74456 20.5052L6.16803 19.7371Z" fill="black"/>
<path d="M2.21164 13.5705L7.47471 14.9855C7.67258 14.6373 7.89003 14.3004 8.12619 13.9793L10.0787 14.5039C10.0899 14.46 10.1011 14.4171 10.1132 14.3732L2.49071 12.3236C2.37777 12.738 2.28537 13.1533 2.21164 13.5705Z" fill="black"/>
<path d="M8.72071 13.2429C8.96151 12.9713 9.21726 12.7128 9.48606 12.4692L10.621 13.0955C10.6387 13.0619 10.6574 13.0283 10.6761 12.9947L3.76565 9.18106C3.57991 9.51801 3.40631 9.86429 3.24578 10.2208L8.72071 13.2429Z" fill="black"/>
<path d="M10.1459 11.9185C10.4054 11.7197 10.6751 11.534 10.9532 11.3604L11.4899 11.856C11.5095 11.8336 11.53 11.8121 11.5506 11.7897L5.75271 6.43333C5.51563 6.68813 5.28791 6.95321 5.06951 7.22761L10.1459 11.9185Z" fill="black"/>
<path d="M7.58018 4.78225L11.657 10.9609C11.8184 10.8779 11.9818 10.7995 12.1479 10.7248C12.1479 10.7248 12.4475 10.596 12.5156 10.568L8.34363 4.24467C8.08323 4.41547 7.82938 4.59467 7.58018 4.78225Z" fill="black"/>
<path d="M13.2072 10.3197C13.2763 10.2983 13.714 10.1713 13.8438 10.1396C13.8438 10.1396 13.966 10.1097 13.9996 10.1023L11.3816 2.7392C11.124 2.83067 10.8693 2.92867 10.6173 3.03507L13.2072 10.3197Z" fill="black"/>
<path d="M14.7809 9.96226C15.0105 9.91281 15.2429 9.87733 15.4781 9.85401L14.6913 2C14.457 2.02333 14.2237 2.05227 13.9922 2.0868L14.7809 9.96226Z" fill="black"/>
<path d="M16.3787 9.83346C16.5747 9.84373 16.7707 9.86241 16.9667 9.89133L18.0811 2.07653C17.8861 2.04853 17.6901 2.02426 17.495 2.00373L16.3787 9.83346Z" fill="black"/>
</svg>
