<svg width="32" height="32" viewBox="0 0 32 32" fill="none" xmlns="http://www.w3.org/2000/svg">
<path d="M22.4416 5.52C23.9208 5.52 25.3 6.1 26.3495 7.16C28.5183 9.36 28.5183 12.95 26.3495 15.15L15.995 25.63L5.65054 15.15C3.47171 12.95 3.47171 9.36 5.65054 7.16C6.68999 6.1 8.07924 5.52 9.54846 5.52C11.0277 5.52 12.4069 6.1 13.4564 7.16C14.3059 8.02 15.1555 8.88 16.005 9.75C16.8445 8.89 17.6941 8.03 18.5336 7.16C19.5731 6.1 20.9623 5.52 22.4416 5.52ZM22.4416 3.5C20.5126 3.5 18.5736 4.25 17.1044 5.74L16.005 6.87L14.8956 5.74C13.4164 4.25 11.4874 3.5 9.54846 3.5C7.61949 3.5 5.68053 4.25 4.21132 5.74C1.26289 8.72 1.26289 13.58 4.21132 16.56L15.2932 27.7794C15.6849 28.1759 16.325 28.1758 16.7164 27.7791L27.7887 16.56C30.7371 13.58 30.7371 8.72 27.7887 5.74C26.3095 4.25 24.3705 3.5 22.4416 3.5Z" fill="black"/>
</svg>
