<svg width="32" height="32" viewBox="0 0 32 32" fill="none" xmlns="http://www.w3.org/2000/svg">
<path fill-rule="evenodd" clip-rule="evenodd" d="M16 3.82843L13.7296 6.09879C13.167 6.6614 12.404 6.97747 11.6083 6.97747H6.97747V11.6083C6.97747 12.404 6.6614 13.167 6.09879 13.7296L3.82844 16L6.09879 18.2703C6.6614 18.8329 6.97747 19.596 6.97747 20.3917V24.1907H10.7765C11.5721 24.1907 12.3352 24.5067 12.8978 25.0693L16 28.1715L19.1022 25.0693C19.6648 24.5067 20.4279 24.1907 21.2235 24.1907H24.1907V21.2235C24.1907 20.4279 24.5067 19.6648 25.0693 19.1022L28.1716 16L25.0693 12.8978C24.5067 12.3351 24.1907 11.5721 24.1907 10.7764V6.97747H20.3917C19.596 6.97747 18.833 6.6614 18.2704 6.09879L16 3.82843ZM19.6846 4.68458C19.8721 4.87212 20.1265 4.97747 20.3917 4.97747H25.1907C25.7429 4.97747 26.1907 5.42519 26.1907 5.97747V10.7764C26.1907 11.0417 26.296 11.296 26.4835 11.4835L30.2929 15.2929C30.6834 15.6834 30.6834 16.3166 30.2929 16.7071L26.4835 20.5164C26.296 20.704 26.1907 20.9583 26.1907 21.2235V25.1907C26.1907 25.7429 25.7429 26.1907 25.1907 26.1907H21.2235C20.9583 26.1907 20.704 26.296 20.5164 26.4835L16.7071 30.2929C16.3166 30.6834 15.6834 30.6834 15.2929 30.2929L11.4836 26.4835C11.296 26.296 11.0417 26.1907 10.7765 26.1907H5.97747C5.42519 26.1907 4.97747 25.7429 4.97747 25.1907V20.3917C4.97747 20.1264 4.87211 19.8721 4.68458 19.6845L1.70712 16.7071C1.3166 16.3166 1.3166 15.6834 1.70712 15.2929L4.68458 12.3154C4.87211 12.1279 4.97747 11.8735 4.97747 11.6083V5.97747C4.97747 5.42519 5.42519 4.97747 5.97747 4.97747H11.6083C11.8735 4.97747 12.1279 4.87211 12.3154 4.68458L15.2929 1.70711C15.6834 1.31658 16.3166 1.31658 16.7071 1.70711L19.6846 4.68458Z" fill="#7E848A"/>
<path d="M17.7194 11.6179L16.1015 10L14.4836 11.6179H11.6179V14.4836L10 16.1015L11.6179 17.7194V20.2467H14.1452L16.1015 22.203L18.0578 20.2467H20.2467V18.0578L22.203 16.1015L20.2467 14.1452V11.6179H17.7194Z" fill="#7E848A"/>
</svg>
