<svg width="32" height="32" viewBox="0 0 32 32" fill="none" xmlns="http://www.w3.org/2000/svg">
<path d="M16 6.51999L18.7089 12.1L19.1719 13.04L20.1963 13.19L26.2643 14.09L21.8709 18.43L21.1321 19.16L21.3094 20.2L22.3438 26.34L16.9161 23.44L16 22.96L15.0839 23.45L9.65625 26.35L10.6906 20.21L10.8679 19.17L10.1291 18.44L5.73574 14.09L11.8037 13.2L12.8281 13.05L13.2911 12.11L16 6.51999ZM16.8997 3.8487C16.5347 3.09863 15.4658 3.09886 15.1011 3.84909L11.518 11.22L3.47872 12.4077C2.66348 12.5281 2.33566 13.5276 2.9212 14.1075L8.75001 19.88L7.37598 27.9927C7.23728 28.8116 8.09957 29.4328 8.83247 29.042L16 25.22L23.1679 29.0422C23.9007 29.433 24.763 28.8119 24.6244 27.993L23.25 19.87L29.0788 14.0975C29.6643 13.5176 29.3365 12.5181 28.5213 12.3977L20.482 11.21L16.8997 3.8487Z" fill="black"/>
</svg>
