<svg width="32" height="32" viewBox="0 0 32 32" fill="none" xmlns="http://www.w3.org/2000/svg">
<path fill-rule="evenodd" clip-rule="evenodd" d="M28 16C28 9.38 22.62 4 16 4C9.38 4 4 9.38 4 16C4 22.62 9.38 28 16 28C22.62 28 28 22.62 28 16ZM2 16C2 8.27 8.27 2 16 2C23.73 2 30 8.27 30 16C30 23.73 23.73 30 16 30C8.27 30 2 23.73 2 16Z" fill="black"/>
<path fill-rule="evenodd" clip-rule="evenodd" d="M14.5858 16L9 10.4143L10.4142 9.00005L16 14.5858L21.5858 9L23 10.4142L17.4142 16L23 21.5858L21.5858 23L16 17.4142L10.4142 23L9.00001 21.5858L14.5858 16Z" fill="black"/>
</svg>
