<svg width="32" height="32" viewBox="0 0 32 32" fill="none" xmlns="http://www.w3.org/2000/svg">
<rect x="2" y="2" width="28" height="28" rx="4" fill="#4DB70D"/>
<path fill-rule="evenodd" clip-rule="evenodd" d="M10.1667 12.5714H21.8333C22.475 12.5714 23 12.0571 23 11.4286V9.14286C23 8.51429 22.475 8 21.8333 8H10.1667C9.525 8 9 8.51429 9 9.14286V11.4286C9 12.0571 9.525 12.5714 10.1667 12.5714ZM10.1667 11.4286V9.14286H21.8333V11.4286H10.1667ZM11.9167 10.8571C12.2388 10.8571 12.5 10.6013 12.5 10.2857C12.5 9.97012 12.2388 9.71429 11.9167 9.71429C11.5945 9.71429 11.3333 9.97012 11.3333 10.2857C11.3333 10.6013 11.5945 10.8571 11.9167 10.8571ZM11.9167 16.5714C12.2388 16.5714 12.5 16.3156 12.5 16C12.5 15.6844 12.2388 15.4286 11.9167 15.4286C11.5945 15.4286 11.3333 15.6844 11.3333 16C11.3333 16.3156 11.5945 16.5714 11.9167 16.5714ZM21.8333 18.2857H10.1667C9.525 18.2857 9 17.7714 9 17.1429V14.8571C9 14.2286 9.525 13.7143 10.1667 13.7143H21.8333C22.475 13.7143 23 14.2286 23 14.8571V17.1429C23 17.7714 22.475 18.2857 21.8333 18.2857ZM10.1667 14.8571V17.1429H21.8333V14.8571H10.1667ZM16.5833 19.4286V22.8571H22.4167V24H9.58333V22.8571H15.4167V19.4286H16.5833Z" fill="white"/>
</svg>
