<svg width="32" height="32" viewBox="0 0 32 32" fill="none" xmlns="http://www.w3.org/2000/svg">
<path fill-rule="evenodd" clip-rule="evenodd" d="M25.7 9.30005C25.9 9.5 26 9.69995 26 10V16H24V12H18C16.9 12 16 11.1 16 10V4H8V28H10V30H8C6.89001 30 6 29.11 6 28V4C6 2.90002 6.89999 2 8 2H18C18.3 2 18.5 2.09998 18.7 2.30005L25.7 9.30005ZM18 4.40002V10H23.6L18 4.40002ZM16.8643 30L16.7298 29.9875C15.2433 29.85 14 28.545 14 26.8667C14 25.3014 15.086 24.054 16.4391 23.7876L17.5197 23.5749L17.9176 22.5479C18.5071 21.0264 19.9314 20 21.5455 20C23.354 20 24.9293 21.2944 25.3478 23.117L25.7172 24.7257L27.3667 24.6682C27.3957 24.6672 27.4249 24.6667 27.4545 24.6667C28.8111 24.6667 30 25.8106 30 27.3333C30 28.8561 28.8111 30 27.4545 30H16.8643ZM12 26.8667C12 29.5445 13.997 31.7432 16.5455 31.979V32H27.4545C29.9649 32 32 29.9107 32 27.3333C32 24.756 29.9649 22.6667 27.4545 22.6667C27.4018 22.6667 27.3493 22.6676 27.2971 22.6694C26.6824 19.9924 24.3406 18 21.5455 18C19.0531 18 16.9211 19.5841 16.0527 21.8253C13.7443 22.2798 12 24.364 12 26.8667Z" fill="black"/>
</svg>
