<svg width="32" height="32" viewBox="0 0 32 32" fill="none" xmlns="http://www.w3.org/2000/svg">
<path d="M25.7 9.3L18.7 2.3C18.5 2.1 18.3 2 18 2H8C6.9 2 6 2.9 6 4V28C6 29.1 6.9 30 8 30H24C25.1 30 26 29.1 26 28V10C26 9.7 25.9 9.5 25.7 9.3ZM18 4.4L23.6 10H18V4.4ZM24 28H8V4H16V10C16 11.1 16.9 12 18 12H24V28Z" fill="#7E848A"/>
<path d="M16.2787 16.3833L16.2877 16.3411C16.4624 15.6213 16.6821 14.7238 16.5105 13.9107C16.3961 13.2692 15.9234 13.0192 15.52 13.0011C15.0443 12.9801 14.6197 13.2511 14.5144 13.6457C14.3156 14.3685 14.4933 15.3563 14.8185 16.6152C14.409 17.591 13.7556 19.0095 13.2769 19.8528C12.3857 20.3136 11.1904 21.0243 11.0128 21.9218C10.9766 22.0875 11.0188 22.2983 11.1182 22.488C11.2296 22.6988 11.4072 22.8615 11.6149 22.9398C11.7053 22.9729 11.8137 23 11.9401 23C12.47 23 13.3281 22.5723 14.4722 20.6087C14.6468 20.5515 14.8275 20.4913 15.0021 20.431C15.8211 20.1539 16.6701 19.8648 17.4379 19.7353C18.2869 20.1901 19.2534 20.4822 19.9097 20.4822C20.5601 20.4822 20.816 20.0967 20.9123 19.8648C21.081 19.4582 20.9997 18.9463 20.7257 18.6722C20.3282 18.2807 19.3618 18.1783 17.8564 18.365C17.1157 17.9132 16.631 17.2988 16.2787 16.3833ZM12.9758 20.9581C12.5573 21.5664 12.2412 21.8706 12.0696 22.0031C12.2713 21.6327 12.6657 21.2412 12.9758 20.9581ZM15.6133 13.8655C15.7699 14.1335 15.7488 14.9437 15.6284 15.3533C15.4808 14.754 15.4598 13.9047 15.5471 13.8053C15.5712 13.8083 15.5922 13.8264 15.6133 13.8655ZM15.5651 17.4946C15.8873 18.0518 16.2938 18.5306 16.7424 18.886C16.092 19.0336 15.4989 19.2775 14.969 19.4944C14.8425 19.5456 14.7191 19.5968 14.5987 19.645C14.9991 18.9191 15.3333 18.0969 15.5651 17.4946ZM20.25 19.4673C20.253 19.4733 20.256 19.4823 20.2379 19.4944H20.2319L20.2259 19.5034C20.2018 19.5185 19.9549 19.663 18.8921 19.2444C20.1145 19.1872 20.247 19.4643 20.25 19.4673Z" fill="#7E848A"/>
</svg>
