<svg width="32" height="32" viewBox="0 0 32 32" fill="none" xmlns="http://www.w3.org/2000/svg">
<path fill-rule="evenodd" clip-rule="evenodd" d="M11.1699 3H6V19H26V7H15.1699L11.1699 3ZM6 1H11.1699C11.7 1 12.21 1.21002 12.5901 1.59003L16 5H26C27.1101 5 28 5.90002 28 7V19C28 20.11 27.1101 21 26 21H17V23H18C19.1045 23 20 23.8954 20 25V26H22.126C22.5701 24.2748 24.1362 23 26 23C28.2092 23 30 24.7908 30 27C30 29.2092 28.2092 31 26 31C24.1362 31 22.5701 29.7252 22.126 28H20V29C20 30.1046 19.1045 31 18 31H14C12.8955 31 12 30.1046 12 29V28H9.87402C9.42993 29.7252 7.86377 31 6 31C3.79077 31 2 29.2092 2 27C2 24.7908 3.79077 23 6 23C7.86377 23 9.42993 24.2748 9.87402 26H12V25C12 23.8954 12.8955 23 14 23H15V21H6C4.8999 21 4 20.11 4 19V3C4 1.90002 4.8999 1 6 1ZM6 29C7.10449 29 8 28.1046 8 27C8 25.8954 7.10449 25 6 25C4.89551 25 4 25.8954 4 27C4 28.1046 4.89551 29 6 29ZM26 29C27.1045 29 28 28.1046 28 27C28 25.8954 27.1045 25 26 25C24.8955 25 24 25.8954 24 27C24 28.1046 24.8955 29 26 29ZM14 25H18V29H14V25Z" fill="#656C72"/>
</svg>
