<svg width="32" height="32" viewBox="0 0 32 32" fill="none" xmlns="http://www.w3.org/2000/svg">
<path fill-rule="evenodd" clip-rule="evenodd" d="M25.6957 9.29999L18.6972 2.29999C18.4972 2.10001 18.2973 2 17.9974 2H7.99956C6.89983 2 6 2.89999 6 4V28C6 29.1 6.89983 30 7.99956 30H13.9982V28H7.99956V4H15.9978V10C15.9978 11.1 16.8976 12 17.9974 12H23.996V14H25.9956V10C25.9956 9.70001 25.8956 9.5 25.6957 9.29999ZM17.9974 4.39999L23.5961 10H17.9974V4.39999ZM9.99912 22V24H16.9976V22H9.99912ZM9.99912 18V16H21.9965V18H9.99912ZM31.7043 19.29L28.705 16.29C28.612 16.1963 28.5014 16.1219 28.3796 16.0712C28.3381 16.0538 28.2956 16.0394 28.2523 16.028C28.1686 16.0056 28.0822 15.9943 27.9951 15.9943C27.9296 15.9943 27.8644 16.0007 27.8004 16.0134C27.7356 16.0263 27.672 16.0456 27.6107 16.0712C27.5535 16.0951 27.4987 16.1241 27.4471 16.158C27.4114 16.1814 27.3772 16.2071 27.3447 16.2349C27.3242 16.2524 27.3044 16.2708 27.2853 16.29L17.9974 25.5901V30.0001H22.4064L31.7043 20.7101C31.798 20.6171 31.8723 20.5065 31.9231 20.3846C31.9739 20.2628 32 20.1321 32 20.0001C32 19.868 31.9739 19.7373 31.9231 19.6155C31.8723 19.4937 31.798 19.3831 31.7043 19.29ZM21.5865 28.0001H19.9969V26.41L24.9958 21.41L26.5854 23.0001L21.5865 28.0001ZM27.9951 21.5901L26.4055 20.0001L27.9951 18.41L29.5848 20.0001L27.9951 21.5901Z" fill="black"/>
</svg>
