<svg width="32" height="32" viewBox="0 0 32 32" fill="none" xmlns="http://www.w3.org/2000/svg">
<path fill-rule="evenodd" clip-rule="evenodd" d="M16.71 2.29004L23.71 9.29004C23.89 9.47998 24 9.72998 24 10V16H22V12H16C14.9 12 14 11.1 14 10V4H6V28H18V30H6C4.89999 30 4 29.1001 4 28V4C4 2.90002 4.89999 2 6 2H16C16.26 2 16.52 2.09998 16.71 2.29004ZM21.59 10L16 4.41003V10H21.59Z" fill="black"/>
<path fill-rule="evenodd" clip-rule="evenodd" d="M20 18H18L20 28H22L23 23L24 28H26L28 18H26L25 23L24 18H22L21 23L20 18Z" fill="black"/>
</svg>
