<svg width="32" height="32" viewBox="0 0 32 32" fill="none" xmlns="http://www.w3.org/2000/svg">
<path fill-rule="evenodd" clip-rule="evenodd" d="M8 28H16V30H8C6.90002 30 6 29.1 6 28V4C6 2.90002 6.90002 2 8 2H18C18.3 2 18.5 2.09998 18.7 2.30005L25.7 9.30005C25.9 9.5 26 9.69995 26 10V14H24V12H18C16.9 12 16 11.1 16 10V4H8V28ZM23.6 10L18 4.40002V10H23.6ZM28.9 22H31V24V24.01H28.88C28.75 24.64 28.5 25.24 28.15 25.76L29.64 27.25L28.23 28.66L26.74 27.17C26.22 27.52 25.63 27.77 24.99 27.9V30H22.99V27.88C22.36 27.75 21.76 27.5 21.24 27.15L19.75 28.64L18.34 27.23L19.83 25.74C19.48 25.22 19.23 24.63 19.1 23.99H17V21.99H19.12C19.25 21.36 19.5 20.76 19.85 20.24L18.36 18.75L19.77 17.34L21.26 18.83C21.78 18.48 22.37 18.23 23.01 18.1V16H25.01V18.11C25.64 18.24 26.24 18.49 26.76 18.84L28.25 17.35L29.66 18.76L28.17 20.25C28.52 20.77 28.77 21.36 28.9 22ZM21 23C21 24.65 22.35 26 24 26C25.65 26 27 24.65 27 23C27 21.35 25.65 20 24 20C22.35 20 21 21.35 21 23Z" fill="black"/>
</svg>
