<svg width="32" height="32" viewBox="0 0 32 32" fill="none" xmlns="http://www.w3.org/2000/svg">
<path fill-rule="evenodd" clip-rule="evenodd" d="M26 10C26 9.69995 25.9 9.5 25.7 9.30005L18.7 2.30005C18.5 2.09998 18.3 2 18 2H8C6.89999 2 6 2.90002 6 4V28C6 29.11 6.89001 30 8 30H10V28H8V4H16V10C16 11.1 16.9 12 18 12H24V16H26V10ZM18 10V4.40002L23.6 10H18ZM16 28C17.1 28 18 27.1 18 26V24C18 22.9 17.1 22 16 22H14V20H18V18H14C12.9 18 12 18.9 12 20V22C12 23.1 12.9 24 14 24H16V26H12V28H16ZM23 18C24.1 18 25 18.9 25 20V26C25 27.1 24.1 28 23 28V29H25V31H23C21.9 31 21 30.1 21 29V28C19.9 28 19 27.1 19 26V20C19 18.9 19.9 18 21 18H23ZM28 18H26V28H32V26H28V18ZM21 20H23V26H21V20Z" fill="black"/>
</svg>
