<svg width="32" height="32" viewBox="0 0 32 32" fill="none" xmlns="http://www.w3.org/2000/svg">
<path fill-rule="evenodd" clip-rule="evenodd" d="M18.71 2.29004L25.71 9.29004C25.89 9.47998 26 9.72998 26 10V16H24V12H18C16.9 12 16 11.1 16 10V4H8V28H17V30H8C6.89999 30 6 29.1001 6 28V4C6 2.90002 6.89999 2 8 2H18C18.26 2 18.52 2.09998 18.71 2.29004ZM23.59 10L18 4.41003V10H23.59ZM19.0004 18H21.0458L22.2969 23.6921L23.7185 18H26.2776L27.7 23.6949L28.9541 18H30.9978L31 18.0005L28.7979 27.9999H26.7156L24.9981 21.123L23.2806 27.9999H21.1979L19.0004 18Z" fill="black"/>
</svg>
