<svg width="32" height="32" viewBox="0 0 32 32" fill="none" xmlns="http://www.w3.org/2000/svg">
<path fill-rule="evenodd" clip-rule="evenodd" d="M18.96 14.81C19.5 14.31 20.21 14 21 14C22.65 14 24 15.35 24 17C24 18.65 22.65 20 21 20C19.35 20 18 18.65 18 17C18 16.86 18.02 16.72 18.04 16.59L14.04 14.19C13.5 14.69 12.79 15 12 15C10.35 15 9 13.65 9 12C9 10.35 10.35 9 12 9C12.79 9 13.5 9.31 14.04 9.81L18.04 7.41C18.0387 7.40122 18.0375 7.39247 18.0362 7.38376C18.0176 7.25365 18 7.13122 18 7C18 5.35 19.35 4 21 4C22.65 4 24 5.35 24 7C24 8.65 22.65 10 21 10C20.21 10 19.5 9.69 18.96 9.19L14.96 11.59C14.9613 11.5988 14.9625 11.6075 14.9638 11.6162C14.9824 11.7463 15 11.8688 15 12C15 12.14 14.98 12.28 14.96 12.41L18.96 14.81ZM22 7C22 6.45 21.55 6 21 6C20.45 6 20 6.45 20 7C20 7.55 20.45 8 21 8C21.55 8 22 7.55 22 7ZM11 12C11 12.55 11.45 13 12 13C12.55 13 13 12.55 13 12C13 11.45 12.55 11 12 11C11.45 11 11 11.45 11 12ZM20 17C20 17.55 20.45 18 21 18C21.55 18 22 17.55 22 17C22 16.45 21.55 16 21 16C20.45 16 20 16.45 20 17ZM28 20H26V22H28V28H4V22H14V20H4C2.9 20 2 20.9 2 22V28C2 29.1 2.9 30 4 30H28C29.1 30 30 29.1 30 28V22C30 20.9 29.1 20 28 20ZM7 26C7.55228 26 8 25.5523 8 25C8 24.4477 7.55228 24 7 24C6.44772 24 6 24.4477 6 25C6 25.5523 6.44772 26 7 26Z" fill="#818589"/>
</svg>
