<svg width="32" height="32" viewBox="0 0 32 32" fill="none" xmlns="http://www.w3.org/2000/svg">
<path fill-rule="evenodd" clip-rule="evenodd" d="M12 21H5V27H12V29H5C3.9 29 3 28.1 3 27V5C3 3.9 3.9 3 5 3H21C22.1 3 23 3.9 23 5V16H21V13H5V19H12V21ZM21 5H5V11H21V5ZM8 9C8.55228 9 9 8.55228 9 8C9 7.44772 8.55228 7 8 7C7.44772 7 7 7.44772 7 8C7 8.55228 7.44772 9 8 9ZM22 20C24.326 20 26.6369 21.4789 27.8214 23.999C26.6268 26.5245 24.3223 28 22 28C19.674 28 17.3631 26.5211 16.1786 24.001C17.3732 21.4755 19.6777 20 22 20ZM22 30C25.3 30 28.35 27.85 29.78 24.52L30 24L29.78 23.48C28.36 20.15 25.3 18 22 18C18.7 18 15.65 20.15 14.22 23.48L14 24L14.22 24.52C15.64 27.85 18.7 30 22 30ZM23 24C23 24.5523 22.5523 25 22 25C21.4477 25 21 24.5523 21 24C21 23.4477 21.4477 23 22 23C22.5523 23 23 23.4477 23 24ZM22 27C23.6569 27 25 25.6569 25 24C25 22.3431 23.6569 21 22 21C20.3431 21 19 22.3431 19 24C19 25.6569 20.3431 27 22 27ZM9 16C9 16.5523 8.55228 17 8 17C7.44772 17 7 16.5523 7 16C7 15.4477 7.44772 15 8 15C8.55228 15 9 15.4477 9 16ZM8 25C8.55228 25 9 24.5523 9 24C9 23.4477 8.55228 23 8 23C7.44772 23 7 23.4477 7 24C7 24.5523 7.44772 25 8 25Z" fill="#818589"/>
</svg>
