<svg width="32" height="32" viewBox="0 0 32 32" fill="none" xmlns="http://www.w3.org/2000/svg">
<path fill-rule="evenodd" clip-rule="evenodd" d="M24 3H8C6.9 3 6 3.9 6 5V27C6 28.1 6.9 29 8 29H18V27H8V21H26V5C26 3.9 25.1 3 24 3ZM24 19H8V13H24V19ZM24 11H8V5H24V11ZM11 9C11.5523 9 12 8.55228 12 8C12 7.44772 11.5523 7 11 7C10.4477 7 10 7.44772 10 8C10 8.55228 10.4477 9 11 9ZM11 17C11.5523 17 12 16.5523 12 16C12 15.4477 11.5523 15 11 15C10.4477 15 10 15.4477 10 16C10 16.5523 10.4477 17 11 17ZM12 24C12 24.5523 11.5523 25 11 25C10.4477 25 10 24.5523 10 24C10 23.4477 10.4477 23 11 23C11.5523 23 12 23.4477 12 24ZM27.59 23L29 24.41L26.41 27L29 29.59L27.59 31L25 28.41L22.41 31L21 29.59L23.59 27L21 24.41L22.41 23L25 25.59L27.59 23Z" fill="#818589"/>
</svg>
