<svg width="32" height="32" viewBox="0 0 32 32" fill="none" xmlns="http://www.w3.org/2000/svg">
<path fill-rule="evenodd" clip-rule="evenodd" d="M28 20H26V22H28V28H4V22H6V20H4C2.9 20 2 20.9 2 22V28C2 29.1 2.9 30 4 30H28C29.1 30 30 29.1 30 28V22C30 20.9 29.1 20 28 20ZM7 26C7.55228 26 8 25.5523 8 25C8 24.4477 7.55228 24 7 24C6.44772 24 6 24.4477 6 25C6 25.5523 6.44772 26 7 26Z" fill="#818589"/>
<path fill-rule="evenodd" clip-rule="evenodd" d="M10 2H22C23.1 2 24 2.9 24 4V20C24 21.1 23.1 22 22 22H10C8.9 22 8 21.1 8 20V4C8 2.9 8.9 2 10 2ZM10 8H22V4H10V8ZM10 10V14H22V10H10ZM10 16V20H22V16H10ZM14 6C14 6.55228 13.5523 7 13 7C12.4477 7 12 6.55228 12 6C12 5.44772 12.4477 5 13 5C13.5523 5 14 5.44772 14 6ZM13 13C13.5523 13 14 12.5523 14 12C14 11.4477 13.5523 11 13 11C12.4477 11 12 11.4477 12 12C12 12.5523 12.4477 13 13 13ZM14 18C14 18.5523 13.5523 19 13 19C12.4477 19 12 18.5523 12 18C12 17.4477 12.4477 17 13 17C13.5523 17 14 17.4477 14 18Z" fill="#818589"/>
</svg>
