<svg width="32" height="32" viewBox="0 0 32 32" fill="none" xmlns="http://www.w3.org/2000/svg">
<path d="M7 7C7.55228 7 8 6.55228 8 6C8 5.44772 7.55228 5 7 5C6.44772 5 6 5.44772 6 6C6 6.55228 6.44772 7 7 7Z" fill="#7E848A"/>
<path d="M10 7C10.5523 7 11 6.55228 11 6C11 5.44772 10.5523 5 10 5C9.44772 5 9 5.44772 9 6C9 6.55228 9.44772 7 10 7Z" fill="#7E848A"/>
<path d="M8 12C8 12.5523 7.55228 13 7 13C6.44772 13 6 12.5523 6 12C6 11.4477 6.44772 11 7 11C7.55228 11 8 11.4477 8 12Z" fill="#7E848A"/>
<path d="M11 12C11 12.5523 10.5523 13 10 13C9.44772 13 9 12.5523 9 12C9 11.4477 9.44772 11 10 11C10.5523 11 11 11.4477 11 12Z" fill="#7E848A"/>
<path d="M14 12C14 12.5523 13.5523 13 13 13C12.4477 13 12 12.5523 12 12C12 11.4477 12.4477 11 13 11C13.5523 11 14 11.4477 14 12Z" fill="#7E848A"/>
<path d="M7 19C7.55228 19 8 18.5523 8 18C8 17.4477 7.55228 17 7 17C6.44772 17 6 17.4477 6 18C6 18.5523 6.44772 19 7 19Z" fill="#7E848A"/>
<path d="M10 19C10.5523 19 11 18.5523 11 18C11 17.4477 10.5523 17 10 17C9.44772 17 9 17.4477 9 18C9 18.5523 9.44772 19 10 19Z" fill="#7E848A"/>
<path fill-rule="evenodd" clip-rule="evenodd" d="M16 2H4C2.9 2 2 2.9 2 4V20C2 21.1 2.9 22 4 22H16C17.1 22 18 21.1 18 20V4C18 2.9 17.1 2 16 2ZM16 4V8H4V4H16ZM4 14V10H16V14H4ZM4 20V16H16V20H4Z" fill="#7E848A"/>
<path d="M14 28V24H16V28H28V24H20V22H28V18H20V16H28V12H20V10H28C29.1 10 30 10.9 30 12V28C30 29.1 29.1 30 28 30H16C14.9 30 14 29.1 14 28Z" fill="#7E848A"/>
<path d="M19 27C19.5523 27 20 26.5523 20 26C20 25.4477 19.5523 25 19 25C18.4477 25 18 25.4477 18 26C18 26.5523 18.4477 27 19 27Z" fill="#7E848A"/>
<path d="M23 26C23 26.5523 22.5523 27 22 27C21.4477 27 21 26.5523 21 26C21 25.4477 21.4477 25 22 25C22.5523 25 23 25.4477 23 26Z" fill="#7E848A"/>
<path d="M25 27C25.5523 27 26 26.5523 26 26C26 25.4477 25.5523 25 25 25C24.4477 25 24 25.4477 24 26C24 26.5523 24.4477 27 25 27Z" fill="#7E848A"/>
<path d="M23 20C23 20.5523 22.5523 21 22 21C21.4477 21 21 20.5523 21 20C21 19.4477 21.4477 19 22 19C22.5523 19 23 19.4477 23 20Z" fill="#7E848A"/>
<path d="M25 15C25.5523 15 26 14.5523 26 14C26 13.4477 25.5523 13 25 13C24.4477 13 24 13.4477 24 14C24 14.5523 24.4477 15 25 15Z" fill="#7E848A"/>
<path d="M23 14C23 14.5523 22.5523 15 22 15C21.4477 15 21 14.5523 21 14C21 13.4477 21.4477 13 22 13C22.5523 13 23 13.4477 23 14Z" fill="#7E848A"/>
</svg>
