<svg width="68" height="68" viewBox="0 0 68 68" fill="none" xmlns="http://www.w3.org/2000/svg">
    <path fill-rule="evenodd" clip-rule="evenodd" d="M48.0833 5.83348C40.3053 -1.94449 27.6947 -1.94449 19.9167 5.83348L5.83348 19.9167C-1.94449 27.6947 -1.94449 40.3053 5.83348 48.0833L19.9167 62.1665C27.6947 69.9445 40.3053 69.9445 48.0833 62.1665L51.1574 59.0924L44.1447 52.0796L42.45 53.7743C37.7832 58.4411 30.2169 58.4411 25.5501 53.7743L14.2835 42.5077C9.61669 37.8409 9.61669 30.2746 14.2835 25.6078L25.5501 14.3412C30.2169 9.67442 37.7832 9.67442 42.45 14.3412L53.7166 25.6078C58.3834 30.2746 58.3834 37.8409 53.7166 42.5077L52.8763 43.348L59.889 50.3608L62.1665 48.0833C69.9445 40.3053 69.9445 27.6947 62.1665 19.9167L48.0833 5.83348ZM38.1412 24.0579C35.8078 21.7245 32.0246 21.7245 29.6912 24.0579L24.0579 29.6912C21.7245 32.0246 21.7245 35.8078 24.0579 38.1412L29.6912 43.7745C32.0246 46.1079 35.8078 46.1079 38.1412 43.7745L43.7745 38.1412C46.1079 35.8078 46.1079 32.0246 43.7745 29.6912L38.1412 24.0579Z" fill="#0C77E5"/>
</svg>
