<svg width="32" height="32" viewBox="0 0 32 32" fill="none" xmlns="http://www.w3.org/2000/svg">
<path fill-rule="evenodd" clip-rule="evenodd" d="M10 28H6C5.46957 28 4.96089 27.7893 4.58582 27.4142C4.21074 27.0391 4 26.5304 4 26V6C4 5.46957 4.21074 4.96089 4.58582 4.58582C4.96089 4.21074 5.46957 4 6 4H10V6H6V26H10V28ZM26 28H22V26H26V6H22V4H26C26.5304 4 27.0391 4.21074 27.4142 4.58582C27.7893 4.96089 28 5.46957 28 6V26C28 26.5304 27.7893 27.0391 27.4142 27.4142C27.0391 27.7893 26.5304 28 26 28ZM18 11H20L17.1 16L20 21H18L16 17.2L14 21H12L14.9 16L12 11H14L16 14.9L18 11Z" fill="black"/>
</svg>
