<svg width="32" height="32" viewBox="0 0 32 32" fill="none" xmlns="http://www.w3.org/2000/svg">
<path d="M11.61 29.92C11.4054 29.8336 11.2353 29.6816 11.1267 29.4878C11.018 29.2941 10.977 29.0697 11.01 28.85L12.83 17H8.00004C7.84691 17.0041 7.69488 16.973 7.55568 16.909C7.41649 16.8451 7.29386 16.75 7.19723 16.6312C7.10059 16.5123 7.03256 16.3728 6.99837 16.2235C6.96418 16.0742 6.96475 15.919 7.00004 15.77L10 2.76998C10.0528 2.54625 10.1811 2.34754 10.3632 2.2073C10.5453 2.06705 10.7702 1.99385 11 1.99999H21C21.1494 1.99948 21.297 2.03246 21.432 2.09649C21.567 2.16052 21.6859 2.25397 21.78 2.36999C21.8755 2.48732 21.9431 2.62476 21.9777 2.77199C22.0124 2.91923 22.0131 3.07241 21.98 3.21999L20.25 11H25C25.1875 10.9996 25.3712 11.0519 25.5303 11.1509C25.6895 11.2499 25.8176 11.3917 25.9 11.56C25.9815 11.7278 26.0143 11.9151 25.9949 12.1007C25.9755 12.2863 25.9045 12.4626 25.79 12.61L12.79 29.61C12.6969 29.731 12.5772 29.8291 12.4403 29.8967C12.3034 29.9643 12.1528 29.9996 12 30C11.8662 29.9975 11.734 29.9704 11.61 29.92ZM17.75 13L19.75 3.99999H11.8L9.26003 15H15.17L13.58 25.28L23 13H17.75Z" fill="black"/>
</svg>
