<svg width="32" height="32" viewBox="0 0 32 32" fill="none" xmlns="http://www.w3.org/2000/svg">
<path fill-rule="evenodd" clip-rule="evenodd" d="M19 4.00002V6.00002H13.91L13.28 13H18V15H13.09L12.09 26.1801C12.045 26.6787 11.8145 27.1424 11.4442 27.4793C11.0739 27.8163 10.5907 28.0021 10.09 28H5V26H10.09L11.09 15H7V13H11.26L11.91 5.82009C11.955 5.32143 12.1855 4.85781 12.5558 4.52077C12.9261 4.18386 13.4093 3.99794 13.91 4.00002H19ZM24 18H26L23.1 23L26 28H24L22 24.2L20 28H18L20.9 23L18 18H20L22 21.9L24 18Z" fill="#161616"/>
</svg>
